<?xml version="1.0" standalone="no"?>
<!DOCTYPE svg PUBLIC "-//W3C//DTD SVG 1.1//EN" "http://www.w3.org/Graphics/SVG/1.1/DTD/svg11.dtd" >
<svg xmlns="http://www.w3.org/2000/svg">
<metadata></metadata>
<defs>
<font id="rolling_no_oneregular" horiz-adv-x="1640" >
<font-face units-per-em="2048" ascent="1638" descent="-410" />
<missing-glyph horiz-adv-x="1331" />
<glyph horiz-adv-x="2048" />
<glyph horiz-adv-x="2048" />
<glyph horiz-adv-x="682" />
<glyph horiz-adv-x="804" d="M135 1339q0 -174 117 -260q70 -51 190 -51q70 0 123 19q182 68 183 286q0 152 -78 236q-88 94 -236 94q-32 0 -63 -6q-55 -8 -99 -35q-137 -80 -137 -283zM305 1309q-16 150 80 196q63 29 123 -2q78 -41 78 -157q0 -113 -70 -158q-39 -23 -78 -23q-27 0 -51 11 q-72 35 -82 133z" />
<glyph unicode="&#xd;" horiz-adv-x="768" d="M162 164q0 -164 137 -164h254q152 0 152 172v868q0 172 -152 172h-254q-137 1 -137 -163v-885z" />
<glyph horiz-adv-x="2048" />
<glyph horiz-adv-x="1734" d="M16 1090q0 -53 29 -89q43 -51 127 -61v-768q0 -172 152 -172h254q137 0 137 164v776h176q137 0 170 94q25 68 -14 129q-29 45 -60 54q-23 8 -104 8h-121q-39 0 -43 3t-4 32q0 61 57 81q49 20 176 23q82 2 111 72q8 18 8 45q0 53 -33 86q-41 43 -100 53q-10 2 -51 2h-109 h-242q-213 0 -288 -94q-70 -82 -70 -303q-106 -16 -145 -86q-12 -23 -13 -49zM1092 1309v98q0 127 100 164q51 18 205 18q131 0 174 -18q100 -45 100 -164v-98h-579zM1114 164q0 -164 137 -164h254q150 0 150 172v868q0 172 -150 172h-254q-137 1 -137 -163v-885z" />
<glyph horiz-adv-x="1732" d="M16 1090q0 -53 29 -89q43 -51 127 -61v-768q0 -172 152 -172h254q137 0 137 164v776h176q137 0 170 94q25 68 -14 129q-29 45 -60 54q-23 8 -104 8h-121q-39 0 -43 3t-4 32q0 61 57 81q49 20 176 23q82 2 111 72q8 18 8 45q0 53 -33 86q-41 43 -100 53q-10 2 -51 2h-109 h-242q-213 0 -288 -94q-70 -82 -70 -303q-106 -16 -145 -86q-12 -23 -13 -49zM1114 168q0 -164 137 -164h254q150 0 150 172v1276q0 174 -150 174h-254q-137 0 -137 -164v-1294z" />
<glyph horiz-adv-x="1439" d="M0 481q4 -51 33 -106q33 -59 73.5 -81t83.5 -22q45 0 107 25v-33q0 -158 76 -215q63 -49 207 -49h569q119 0 147 6q63 14 111 92q20 35 20 103q0 61 -18 102q-37 72 -113 86q-31 8 -182 8h-223v211l74 41q55 29 88.5 47.5t44.5 28.5q68 53 78 137q4 51 -29 107 q-31 61 -70 86q-47 29 -96 28q-45 0 -90 -18v344q0 213 -182 213h-224q-117 0 -161 -92q-27 -51 -27 -121v-657l-90 -47q-92 -47 -123 -72q-86 -72 -84 -152z" />
<glyph horiz-adv-x="1181" d="M0 481q2 -45 35 -102q33 -63 74 -85t81 -22q53 0 121 33v-141q0 -164 138 -164h253q150 0 150 172v416l113 61q57 29 89.5 48.5t43.5 27.5q68 53 78 137q6 49 -27 107q-35 63 -70 86q-47 29 -98 28q-53 0 -129 -34v399q0 174 -150 174h-253q-137 0 -138 -164v-698 l-104 -55q-47 -25 -77 -43.5t-44 -28.5q-88 -70 -86 -152z" />
<glyph horiz-adv-x="1503" d="M113 117q0 -86 86 -107q47 -10 215 -10h858q106 0 172 92q23 35 22 92q0 66 -26 111q-37 63 -117 80q-51 10 -209 10h-266l471 717q66 98 80 127q35 74 35 141v121q0 96 -97 121q-37 10 -141 10h-768q-90 0 -141 -10q-74 -18 -115 -78q-27 -39 -27 -100q0 -55 21 -99 q45 -100 194 -100h342l-475 -729q-35 -51 -51 -78t-18 -31q-45 -82 -45 -161v-119zM397 2068l242 -323h326l245 323h-272l-135 -172l-129 172h-277z" />
<glyph horiz-adv-x="1331" d="M123 170q0 -39 12 -72q27 -80 135 -98q12 -2 49 -2h97h592q195 0 247 72q16 23 17 65q2 39 -10 70q-25 59 -109 76q-31 6 -135 6h-215l313 504l80 122q45 76 45 134q0 33 -16 65q-39 72 -135 94q-37 6 -156 6h-508q-111 0 -150 -6q-84 -12 -116 -55q-29 -35 -29 -78 q0 -90 119 -117q55 -12 190 -12h105l-305 -498q-66 -104 -74 -122q-43 -86 -43 -154zM340 1683l242 -323h325l246 323h-272l-136 -172l-129 172h-276z" />
<glyph unicode=" "  horiz-adv-x="1331" />
<glyph unicode="&#x09;" horiz-adv-x="1331" />
<glyph unicode="&#xa0;" horiz-adv-x="1331" />
<glyph unicode="!" horiz-adv-x="776" d="M131 180q0 -190 186 -190h193q186 0 186 194v131q0 195 -178 195h-207q-106 0 -151 -82q-29 -53 -29 -117v-131zM133 1378q0 -16 1 -36.5t3 -47.5l29 -350q16 -168 41 -205q37 -57 164 -57h127q92 0 123 41q39 51 53 221l33 338q2 23 3 43.5t1 38.5q0 137 -62 184 q-39 27 -131 27h-211q-174 0 -174 -197z" />
<glyph unicode="&#x22;" horiz-adv-x="1302" d="M127 1323q0 -160 141 -168l-22 -342h266l10 195q2 70 49 143q45 76 45 121v215q0 135 -155 135h-189q-145 0 -145 -158v-141zM758 1323q0 -160 143 -168l-24 -342h266l12 195q2 63 47 143q45 76 45 121v215q0 135 -153 135h-189q-147 0 -147 -158v-141z" />
<glyph unicode="#" horiz-adv-x="1687" d="M109 432h294l-145 -432h227l146 432h252l-146 -432h228l147 432h283l63 197h-280l88 256h290l64 196h-287l150 435h-228l-149 -435h-252l150 435h-228l-149 -435h-299l-60 -196h291l-86 -256h-305zM700 629l86 256h252l-88 -256h-250z" />
<glyph unicode="$" horiz-adv-x="1613" d="M115 1096q0 -121 32 -207q43 -115 189 -187q70 -37 225 -79l209 -60v-266q-35 0 -59.5 24.5t-24.5 65.5v107h-536q-8 -98 22 -203q41 -135 133 -199q80 -53 230 -86q125 -25 235 -24v-132q0 -20 25 -20h69q27 0 27 25v129q514 -16 625 252q43 100 43 239q0 117 -35 197 q-41 94 -146 155q-82 47 -207 84q-47 12 -92 24.5t-90 25.5l-98 28v273q35 0 60.5 -25t25.5 -63v-107h545q6 102 -25 201q-41 135 -133 200q-150 106 -473 107v137q0 20 -25 21h-57q-29 0 -29 -25v-133q-217 -2 -303 -25q-244 -53 -321 -229q-41 -98 -41 -225zM680 1180 q14 82 90 82v-224q-68 12 -82 62q-14 41 -8 80zM891 297v225q49 -8 78 -57q20 -33 10 -82q-14 -70 -88 -86z" />
<glyph unicode="%" horiz-adv-x="2236" d="M135 1133q-6 -88 27 -181q39 -117 125 -182q133 -106 340 -106q121 0 231 36q209 72 266 301q14 51 15 113q0 166 -107 285q-141 158 -420 157q-49 0 -88 -6q-111 -14 -192 -65q-182 -111 -197 -352zM528 1122q0 111 62 146q45 23 84 -4q47 -33 51 -138q4 -135 -49 -170 q-41 -29 -80 -6q-52 25 -64 117q-2 14 -3 27.5t-1 27.5zM598 -68q0 -10 8 -18q14 -14 49 -10q31 2 54 22q47 59 69 97l848 1376q25 51 25 59q-2 39 -49 35q-33 -2 -52 -18q-55 -63 -80 -107l-839 -1368q-33 -51 -33 -68zM1188 436q-6 -90 26 -182q41 -117 123 -180 q137 -104 342 -105q121 0 232 35q205 70 264 301q14 51 14 113q0 168 -106 287q-141 156 -418 155q-51 0 -90 -6q-109 -14 -191 -66q-178 -109 -196 -352zM1581 430q0 109 59 143q43 25 84 -6q49 -39 54 -137q4 -133 -52 -168q-33 -27 -77 -6q-54 25 -64 115q-2 16 -3 30.5 t-1 28.5z" />
<glyph unicode="&#x26;" horiz-adv-x="1875" d="M133 326q0 -238 256 -334q111 -45 258 -45q285 0 510 157q90 -72 160 -100q55 -20 137 -22h213q160 0 160 100q0 51 -64 115q-33 29 -65.5 59.5t-65.5 60.5l-102 99l57 51q184 164 189 219q2 43 -84 68q-104 33 -148 32q-51 0 -92 -38q-35 -31 -111 -136l-170 160 q90 41 146.5 73t83.5 54q92 72 121 201q6 31 6 63q0 141 -96 232q-137 131 -500 131q-172 0 -281 -29q-266 -74 -325 -287q-12 -43 -13 -88q0 -182 211 -401q-193 -51 -305 -174q-86 -96 -86 -221zM649 375q0 86 92 127l209 -199q-89 -61 -155 -61q-29 0 -54.5 10t-46 28.5 t-33 43t-12.5 51.5zM846 1174q0 82 67 116q31 14 61 13.5t54.5 -15t42 -43t21.5 -67.5q8 -78 -121 -207q-125 131 -125 203z" />
<glyph unicode="'" horiz-adv-x="733" d="M127 1323q0 -160 141 -168l-22 -342h266l10 195q2 70 49 143q45 76 45 121v215q0 135 -155 135h-189q-145 0 -145 -158v-141z" />
<glyph unicode="(" horiz-adv-x="1026" d="M131 422q0 -422 318 -422h213q53 0 88.5 1t52.5 3q94 14 131 74q29 47 29 100q0 98 -107 144q-76 31 -102 47q-53 35 -66 120q-2 10 -2 39v82v375q0 219 68 262q20 14 104 49q51 20 80 62q25 33 25 80q0 53 -29 100q-39 61 -131 76q-37 6 -141 6h-213q-317 0 -318 -440 v-758z" />
<glyph unicode=")" horiz-adv-x="1026" d="M131 178q0 -53 29 -100q37 -59 131 -74q16 -2 51 -3t88 -1h215q317 0 318 422v760q0 440 -318 440h-215q-102 0 -139 -6q-92 -14 -131 -76q-29 -47 -29 -100q0 -47 25 -80q27 -41 80 -62q78 -33 102 -49q70 -45 70 -262v-377v-82q0 -29 -2 -39q-16 -88 -68 -120 q-10 -8 -36 -19.5t-66 -27.5q-104 -47 -105 -144z" />
<glyph unicode="*" horiz-adv-x="706" d="M129 1430l119 -9q12 -2 18 -2h6q0 -6 -16 -22l-84 -88q37 -35 67.5 -61.5t57.5 -47.5l65 107q16 29 21 28q4 0 10 -26l47 -113l138 80l-58 96q-12 18 6 23l119 24l-47 174l-121 -57q-10 -4 -14 -6l-4 -2q-2 0 0 26q8 66 11 102t3 46h-176l16 -139q4 -18 0 -23q0 -2 -12 4 l-20 10l-93 45z" />
<glyph unicode="+" horiz-adv-x="1517" d="M131 481h485v-481h347v481h481v336h-481v483h-347v-483h-485v-336z" />
<glyph unicode="," horiz-adv-x="733" d="M133 197q0 -170 158 -187l-127 -368h295l114 213q33 59 52.5 97t25.5 54q27 61 27 135v240q0 147 -172 147h-209q-164 0 -164 -172v-159z" />
<glyph unicode="-" horiz-adv-x="993" d="M123 596q0 -70 27 -109q39 -53 104 -75q49 -14 176 -15h180q63 0 101.5 1t52.5 3q88 16 133 86q27 39 27 109q0 66 -23 106q-43 72 -135 95q-37 6 -156 6h-180q-109 0 -141 -6q-113 -23 -146 -95q-20 -41 -20 -106z" />
<glyph unicode="." horiz-adv-x="733" d="M129 195q0 -195 174 -195h217q154 0 154 174v176q0 176 -174 176h-207q-164 0 -164 -172v-159z" />
<glyph unicode="/" horiz-adv-x="1097" d="M125 -86q0 -10 8 -16q14 -18 51 -13q14 2 27.5 7.5t27 17.5t29 34.5t37.5 59.5l727 1241q27 44 23 60q-2 39 -47 34q-33 -2 -54 -16q-49 -61 -77 -109l-717 -1232q-35 -59 -35 -68z" />
<glyph unicode="0" d="M152 559q0 -383 227 -514q121 -70 301 -88q43 -4 86 -6t84 -2q352 0 516 145q172 156 172 453v393q0 272 -172 430q-164 147 -512 148q-41 0 -85 -2.5t-89 -6.5q-176 -18 -301 -90q-227 -133 -227 -514v-346zM725 422v614q0 78 35 120t82 42q49 0 86 -42t37 -116v-622 q0 -74 -37 -116t-86 -42q-47 0 -82 42t-35 120z" />
<glyph unicode="1" d="M346 1292q0 -53 21 -80q68 -94 213 -94v-901q0 -131 30 -170q35 -47 156 -47h213q117 0 151 55q25 39 25 164v955v94q0 37 -2 47q-10 55 -47 96q-49 55 -264 55h-267q-76 0 -112 -14q-53 -18 -92 -74q-25 -35 -25 -86z" />
<glyph unicode="2" d="M211 225q0 -111 37 -153q47 -53 139 -68q18 -2 52 -3t85 -1h707q158 0 223 74q31 33 31 94q0 29 -10 55q-29 72 -119 90q-35 6 -193 6h-411q-33 0 -38 3.5t-5 23.5q0 82 69 127q150 57 264 92q98 35 159 57.5t87 36.5q160 84 203 199q27 68 27 164q0 176 -78 283 q-94 131 -338 186q-170 37 -320 29q-397 -18 -528 -248q-37 -66 -37 -133q0 -76 34 -104.5t120 -28.5h159q78 6 99 14q35 8 58.5 35.5t43 60.5t38.5 61.5t46 39.5q59 23 107 -17q51 -39 38.5 -123t-92.5 -141q-27 -23 -159 -88l-99 -49q-174 -88 -254 -170 q-86 -92 -129 -256q-16 -61 -16 -148z" />
<glyph unicode="3" d="M193 293q0 -35 12 -68q66 -184 370 -252q106 -25 265 -24q393 0 555 168q104 106 104 282q0 49 -8 82q-47 197 -301 277q94 25 137 49q156 86 164 278q10 190 -156 304q-186 131 -520 131q-213 0 -360 -70q-41 -18 -77 -45t-65.5 -57.5t-48 -62.5t-24.5 -62 q-8 -47 14 -86q31 -51 115 -52h202q23 0 41.5 1t37 8.5t39 21.5t46.5 41q45 49 90 49q49 0 78 -37q35 -47 35 -110q0 -125 -104 -150l-111 -6q-92 -6 -125 -35.5t-33 -97.5q0 -18 3 -36.5t7 -39.5q18 -74 78 -90q10 -2 41 -4t84 -4q78 -2 111 -35t41 -110q4 -33 3 -59.5 t-5 -47.5q-14 -70 -78 -86q-63 -14 -109 25q-29 35 -53 73.5t-47 49.5q-25 10 -96 10h-207q-84 0 -121 -45q-25 -29 -24 -78z" />
<glyph unicode="4" d="M131 444q0 -53 25 -86q47 -63 116 -77q31 -8 123 -9h373q23 0 23 -20v-57q0 -109 32 -148q41 -47 150 -47h194q199 0 199 205v74h33q156 0 155 151q0 37 -12 66q-41 102 -176 96v651q0 223 -264 223h-357q-129 0 -180 -45q-20 -20 -73 -131l-316 -672q-45 -92 -45 -174z M516 592l275 598v-598h-275z" />
<glyph unicode="5" d="M193 303q0 -16 4 -37q33 -164 276 -264q131 -55 330 -55q307 0 491 129q215 154 203 479q-2 96 -53 201q-59 119 -154 178q-109 61 -246 61q-166 0 -329 -82v234h348q137 0 174 6q88 16 127 72q27 39 27 96q0 45 -15 65q-41 57 -104 74q-31 6 -123 6h-596q-68 0 -109 -1 t-57 -3q-57 -6 -92 -41q-45 -43 -55 -114q-2 -8 -2 -41v-84v-234q0 -63 1 -100t3 -51q8 -86 57 -125q53 -43 188 -41q113 6 125 12q25 6 82 59q57 55 86 58q59 8 101 -35q45 -51 45 -246q0 -88 -11 -125q-23 -78 -88 -96q-63 -18 -110 23q-25 25 -33 55q-2 18 -10 45 q-16 37 -37 45q-31 18 -102 18h-222q-121 0 -120 -141z" />
<glyph unicode="6" d="M143 582q0 -408 238 -541q168 -92 483 -92q303 0 461 90q223 131 227 424q2 289 -215 418q-102 59 -252 59q-202 0 -364 -90q0 231 18 291q20 70 92 73q68 4 113 -59q55 -80 100 -100q29 -14 123 -15h113q158 0 202 44t17 126q-55 172 -282 254q-147 53 -371 54 q-328 0 -494 -111q-133 -90 -178 -242q-31 -98 -31 -260v-323zM721 397v168q16 127 102 140q143 18 144 -140v-164q0 -145 -127 -145q-59 0 -95 53q-24 39 -24 88z" />
<glyph unicode="7" d="M295 1296q0 -47 20 -82q45 -80 271 -79h217l-309 -801q-63 -160 -64 -217q0 -45 23.5 -75t78.5 -38q14 -2 43 -3t76 -1h158q123 0 164 47q20 20 86 189l317 813q61 160 62 229q0 57 -27 98q-43 70 -135 84q-35 6 -156 6h-559q-98 0 -125 -6q-88 -16 -121 -80 q-20 -39 -20 -84z" />
<glyph unicode="8" d="M125 432q0 -180 145 -309q129 -117 322 -150q133 -27 295 -26q399 0 575 182q117 123 117 295q0 53 -12 94q-52 184 -314 262q158 47 217 127q49 63 50 189q0 74 -23 131q-47 117 -197 192q-106 53 -231 78q-59 10 -121.5 16.5t-130.5 6.5q-379 0 -538 -179 q-90 -102 -91 -243q0 -45 9 -76q33 -141 229 -227q-154 -39 -238 -148q-63 -82 -63 -215zM705 420v92q0 102 63 152q33 25 86 24q147 0 147 -176v-88q0 -131 -69 -164q-37 -18 -82 -18q-51 0 -82 24q-63 51 -63 154zM743 1022v65q0 80 45 113q55 39 121 2q52 -19 52 -121 v-55q0 -94 -52 -121q-72 -35 -119 2t-47 115z" />
<glyph unicode="9" d="M149.5 1003.5q-2.5 -290.5 212.5 -417.5q102 -59 244 -60q188 0 350 90q0 -266 -8 -290q-8 -31 -33 -56q-37 -37 -88 -37q-70 0 -108 50q-12 27 -24.5 51t-26.5 49q-29 41 -156 41h-115q-78 0 -126 -11.5t-72.5 -33t-27.5 -53t9 -72.5q55 -170 281 -254q141 -51 370 -51 q326 0 496 108q131 86 178 244q29 98 29 260v324q0 410 -236 540q-168 94 -469 95q-293 0 -452 -93q-225 -133 -227.5 -423.5zM713 899v156q0 154 127 153q59 0 94 -53q22 -41 22 -88v-168q-16 -127 -102 -139q-47 -6 -90 26q-51 39 -51 113z" />
<glyph unicode=":" horiz-adv-x="733" d="M135 195q0 -195 176 -195h215q154 0 154 174v176q0 176 -172 176h-209q-164 0 -164 -172v-159zM135 879q0 -195 176 -195h215q154 0 154 174v176q0 176 -172 176h-209q-164 0 -164 -172v-159z" />
<glyph unicode=";" horiz-adv-x="733" d="M121 197q0 -170 158 -187l-127 -368h294l113 213q33 63 52.5 100t25.5 51q27 61 27 135v240q0 147 -172 147h-207q-164 0 -164 -172v-159zM121 883q0 -195 174 -195h217q152 0 152 176v174q0 176 -172 176h-207q-164 0 -164 -172v-159z" />
<glyph unicode="&#x3c;" horiz-adv-x="1222" d="M160 737l977 -364v260l-627 223l627 225v260l-977 -364v-240z" />
<glyph unicode="=" horiz-adv-x="1761" d="M131 436h1573v320h-1573v-320zM131 961h1573v317h-1573v-317z" />
<glyph unicode="&#x3e;" horiz-adv-x="1222" d="M160 373l977 364v240l-977 364v-260l626 -225l-626 -223v-260z" />
<glyph unicode="?" horiz-adv-x="1490" d="M125 1266q0 -80 47 -127q51 -51 174 -52h98q121 0 162 72q31 63 49 105q35 74 99 71q66 -4 90 -55q29 -59 -6 -133q-16 -33 -133 -117q-115 -84 -150 -158q-12 -29 -12 -59q0 -45 20 -78q49 -80 178 -80h107q88 0 123 11q51 20 112 100l35 45q43 25 83 46.5t77 41.5 q84 51 123 143q27 59 26 154q0 143 -65 234q-139 188 -641 188q-35 0 -62.5 -1t-50.5 -3q-156 -12 -243 -47q-102 -39 -168 -115q-72 -84 -72 -186zM520 195q0 -195 174 -195h217q154 0 154 174v176q0 176 -174 176h-207q-164 0 -164 -172v-159z" />
<glyph unicode="@" horiz-adv-x="2082" d="M90 567q0 -256 129 -467q127 -209 354 -323v2q223 -113 482 -113q385 0 768 242l-60 86q-334 -199 -655 -199q-492 0 -694 375q-90 170 -90 383q0 233 104 422q240 426 686 448q162 8 340 -47q219 -70 321.5 -214t102.5 -335q0 -143 -55 -280q-90 -223 -234 -250 q-119 -20 -119 80q0 53 50 223l137 475h-281l-39 -125q-10 23 -18 38.5t-16 25.5q-84 113 -259 98q-92 -6 -182 -58.5t-158.5 -136t-110.5 -190t-38 -223.5q0 -119 45 -191q94 -156 287 -159q211 -3 340 202q20 -143 143 -186q49 -16 103 -16q154 0 286 102q117 92 183 270 q53 147 53 301q0 43 -6 84q-25 180 -134.5 325.5t-275.5 221.5q-184 80 -422 80q-385 0 -659 -195q-408 -291 -408 -776zM856 432q8 98 72 277q84 225 168 258q63 25 120.5 -18.5t49.5 -143.5q-10 -102 -68 -258q-74 -197 -162 -242q-37 -16 -67 -16q-33 0 -60 16 q-61 41 -53 127z" />
<glyph unicode="A" horiz-adv-x="1710" d="M98 109q0 -109 119 -109h301q117 0 170 84q10 16 25.5 60t31.5 116h289q16 -72 31.5 -116t26.5 -60q53 -84 170 -84h301q116 0 116 113q0 47 -18 114l-342 1225q-31 111 -92 143q-45 27 -164 27h-346q-119 0 -164 -27q-61 -33 -92 -143l-342 -1225q-20 -70 -21 -118z M807 606l82 563l84 -563h-166z" />
<glyph unicode="B" horiz-adv-x="1638" d="M137 213q0 -213 170 -213h733q381 0 502 190q57 90 57 244q0 96 -28 160q-49 104 -144 154q-68 35 -192 59q205 72 268 182q51 88 51 232q0 125 -38 194q-111 207 -496 207h-694q-117 0 -162 -92q-27 -51 -27 -121v-1196zM733 360v297h92q125 0 170 -63q23 -29 23 -76 q0 -53 -29 -92q-49 -66 -158 -66h-98zM733 985v281h74t37 -2q63 -8 98 -58q26 -35 26 -77q0 -21 -8 -45q-20 -70 -96 -89q-27 -10 -131 -10z" />
<glyph unicode="C" horiz-adv-x="1622" d="M135 653q0 -205 29 -309q49 -178 203 -283q167 -112 499 -112h6q256 0 416 65q129 57 210 167t81 247q0 162 -209 162h-188q-104 0 -150 -55q-35 -41 -35 -93q0 -66 -10 -92q-12 -39 -63 -59q-33 -15 -64 -15q-33 0 -65 17q-53 29 -62 96q-2 16 -3 65.5t-1 135.5v471 q0 63 3 106t7 68q12 61 54 84q29 15 62 15q22 0 46 -7q76 -20 86 -119q18 -157 189 -157h2h186q184 0 207 120q2 14 3 26.5t1 27.5q0 100 -72 207q-167 241 -651 241h-4q-33 0 -59.5 -1t-49.5 -3q-223 -29 -331 -88q-176 -98 -234 -278q-39 -111 -39 -322v-328z" />
<glyph unicode="D" horiz-adv-x="1654" d="M141 213q0 -86 19 -129q40 -84 153 -84h658q285 0 403 66q211 119 211 497v455q0 340 -139 473q-137 131 -475 131h-641q-117 0 -162 -92q-27 -51 -27 -121v-1196zM737 352v920h78q174 0 174 -164v-606q0 -150 -176 -150h-76z" />
<glyph unicode="E" horiz-adv-x="1392" d="M139 213q0 -86 19 -129q40 -84 153 -84h768q100 0 146 10q74 20 116 86q23 39 23 105q0 63 -21 102q-43 76 -141 94q-35 6 -164 6h-303v236h264q129 0 164 6q86 14 127 84q25 43 25 96q0 45 -19 80q-43 78 -147 96q-35 6 -166 7h-248v221h303q123 0 164 6q94 18 137 84 q27 39 27 108q0 61 -20 97q-41 74 -117 92q-29 6 -135 6h-766q-117 0 -162 -92q-27 -51 -27 -121v-1196z" />
<glyph unicode="F" horiz-adv-x="1386" d="M150 213q0 -90 18 -129q37 -84 151 -84h263q100 0 137 57q24 38 24 122v7v453h265q129 0 163 6q86 14 127 84q25 43 25 96q0 45 -18 80q-43 78 -148 96q-35 6 -164 7h-250v221h304q123 0 163 6q94 18 138 84q28 44 28 107t-20 98q-39 74 -115 92q-29 6 -139 6h-766 q-115 0 -160 -92q-27 -51 -26 -121v-1196z" />
<glyph unicode="G" horiz-adv-x="1677" d="M127 647q0 -205 29 -309q49 -178 202 -283q162 -106 371 -106q199 0 340 92q84 57 131 117q14 20 21 20q2 0 24 -55l19 -51q31 -84 143 -84q74 0 125 35q63 49 80 133q2 10 2 41v90v241q0 205 -53 258q-63 63 -269 64h-182q-102 0 -143 -10q-35 -8 -64 -52 q-18 -29 -22 -100q0 -55 10 -96q22 -70 112 -70h5q20 0 24 -7t4 -50v-55q0 -96 -118 -129q-36 -10 -66 -10q-36 0 -64 15q-53 27 -63 97q-2 16 -3 65.5t-1 135.5v477q0 123 10 174q12 61 53 84q27 14 68 14h12q36 0 56 -10q72 -39 100 -166q25 -106 184 -106h152 q184 0 207 120q2 14 3 26.5t1 27.5q0 100 -72 207q-169 243 -651 243h-4q-66 0 -111 -6q-223 -29 -332 -88q-176 -98 -233 -276q-37 -115 -37 -324v-334z" />
<glyph unicode="H" horiz-adv-x="1658" d="M156 213q0 -213 184 -213h242q168 0 168 213v403h247v-403q0 -213 168 -213h240q186 0 186 213v1196q0 70 -26 121q-47 92 -162 92h-223q-182 0 -183 -213v-332h-247v332q0 213 -185 213h-221q-117 0 -162 -92q-27 -51 -26 -121v-1196z" />
<glyph unicode="I" horiz-adv-x="792" d="M137 213q0 -213 187 -213h235q174 0 174 213v1196q0 213 -184 213h-223q-117 0 -162 -92q-27 -51 -27 -121v-1196z" />
<glyph unicode="J" horiz-adv-x="1568" d="M121 291q61 -215 307 -295q143 -49 365 -49q350 0 514 114q209 147 209 514v834q0 213 -185 213h-223q-117 0 -162 -92q-26 -51 -26 -121v-850q0 -59 -1 -97t-4 -52q-8 -72 -49 -105q-28 -23 -70 -23q-18 0 -40 5q-59 12 -84 59q-2 4 -19 66q-18 68 -75 86q-25 8 -123 8 h-170q-74 0 -113 -23q-23 -16 -47 -55q-16 -26 -16 -64q0 -32 12 -73z" />
<glyph unicode="K" horiz-adv-x="1695" d="M133 213q0 -213 186 -213h236q172 0 172 213v567q0 10 6 8q6 -4 10 -16l230 -516q76 -174 110 -205q53 -51 215 -51h226q78 0 121 36t43 93q0 43 -25 90l-317 594l319 627q16 33 16 61q0 121 -180 121h-223q-145 0 -193 -41q-25 -20 -106 -188l-231 -473q-12 -27 -17 -27 q-4 4 -4 18v498q0 213 -182 213h-223q-117 0 -162 -92q-27 -51 -27 -121v-1196z" />
<glyph unicode="L" horiz-adv-x="1275" d="M135 264q0 -156 78 -215q63 -49 205 -49h569q119 0 148 6q68 18 110 92q23 41 23 103q0 63 -21 102q-37 70 -110 86q-31 8 -185 8h-223v1012q0 213 -182 213h-223q-117 0 -162 -92q-27 -51 -27 -121v-1145z" />
<glyph unicode="M" horiz-adv-x="2301" d="M150 213q0 -213 184 -213h178q172 0 172 213v854l180 -799q33 -147 56 -188q45 -80 151 -80h254q104 0 152 80q23 41 55 188l180 799v-854q0 -213 172 -213h176q186 0 187 213v1102q0 106 -6 141q-10 68 -49.5 111t-104.5 51q-14 2 -52 3t-104 1h-309q-174 0 -229 -61 q-43 -47 -80 -228l-115 -567l-117 567q-37 180 -80 228q-55 61 -227 61h-311q-66 0 -103.5 -1t-52.5 -3q-63 -8 -103 -50t-50 -112q-2 -16 -3 -51t-1 -90v-1102z" />
<glyph unicode="N" horiz-adv-x="1851" d="M141 213q0 -213 187 -213h178q172 0 172 213v854l178 -799q35 -150 55 -188q45 -80 154 -80h395h103q39 0 53 2q63 8 103 50t50 110q6 37 7 141v1106q0 213 -187 213h-178q-172 0 -172 -213v-778l-164 702q-43 182 -82 228q-55 61 -225 61h-311q-66 0 -104 -1t-52 -3 q-63 -8 -103 -50t-51 -112q-6 -35 -6 -141v-1102z" />
<glyph unicode="O" horiz-adv-x="1630" d="M131 612q0 -442 285 -592q139 -73 424 -73h8q387 0 528 123q199 174 199 530v418q0 358 -199 532q-141 123 -530 123q-289 0 -430 -74q-285 -150 -285 -591v-396zM725 436v746q0 66 38 104.5t89 38.5t88 -39t37 -108v-736q0 -70 -37 -108.5t-88 -38.5t-89 37.5t-38 103.5 z" />
<glyph unicode="P" horiz-adv-x="1630" d="M131 213q0 -213 186 -213h236q172 0 172 213v295h225q203 0 295 27q172 45 258 194q68 113 68 315q0 209 -68 332q-134 246 -542 246h-642q-115 0 -161 -96q-27 -51 -27 -123v-1190zM725 834v442q47 0 78 -1t41 -3q59 -12 97 -61.5t38 -161.5q0 -78 -18 -115 q-33 -70 -103 -90q-37 -10 -133 -10z" />
<glyph unicode="Q" horiz-adv-x="1648" d="M129 612q0 -442 285 -592q67 -35 176 -51v-143q6 -98 39 -143q49 -70 151 -86q37 -6 156 -7h53h131q94 8 121 52q14 23 14 71q0 43 -14 70q-23 43 -61 45q-61 6 -74 14q-35 18 -41 58q2 -6 2 65q211 20 307 105q199 174 199 530v418q0 358 -199 532q-141 123 -530 123 q-289 0 -430 -74q-285 -150 -285 -591v-396zM723 436v746q0 66 38 104.5t89 38.5t88 -39t37 -108v-736q0 -70 -37 -108.5t-88 -38.5t-89 37.5t-38 103.5z" />
<glyph unicode="R" horiz-adv-x="1628" d="M147 213q0 -213 185 -213h235q174 0 174 213v449q25 1 46 1q102 0 126 -16q49 -29 58 -82q2 -10 3 -43t1 -88v-221q0 -213 186 -213h236q172 0 172 213v143q0 190 -21 252q-43 125 -200 197q127 66 184 174q41 86 41 213q0 143 -51 231q-117 199 -418 199h-770 q-115 0 -160 -92q-27 -51 -27 -121v-1196zM741 987v301q104 0 129 -8q57 -12 82 -68q14 -29 15 -75q0 -61 -27 -95q-43 -55 -199 -55z" />
<glyph unicode="S" horiz-adv-x="1572" d="M106 336q0 -31 11 -68q68 -217 393 -286q145 -33 321 -33q369 0 533 157q141 137 141 383q0 66 -12 125q-35 160 -147 242q-61 45 -267 123l-129 49q-217 84 -237 156q-4 20 -4 35q0 55 36 96q40 40 88 40q8 0 17 -1q47 -6 78 -49l43 -74q47 -66 174 -66h143 q174 0 174 152q0 76 -61 153q-92 113 -314 166q-158 37 -337 37q-29 0 -53 -1t-40 -3q-231 -29 -354 -135q-84 -74 -129 -203q-37 -109 -37 -221q0 -45 6 -82q27 -139 136 -223q72 -57 251 -119l117 -41q246 -86 281 -170q12 -29 12 -65q0 -63 -36 -115.5t-99 -52.5 q-23 0 -43 6q-80 20 -105 129q-16 63 -55 92q-47 31 -149 31h-158q-80 0 -134.5 -44t-54.5 -120z" />
<glyph unicode="T" horiz-adv-x="1386" d="M66 1423q0 -59 24 -98q61 -100 236 -100h96v-1012q0 -213 186 -213h236q172 0 172 213v1012h108q156 0 215 80q33 45 33 122q0 61 -18 97q-39 74 -133 92q-35 6 -158 6h-709q-115 0 -157 -14q-66 -20 -107 -86q-25 -41 -24 -99z" />
<glyph unicode="U" horiz-adv-x="1644" d="M150 596q0 -205 40 -317q55 -148 209 -238q168 -94 459 -94q299 0 473 94q156 86 211 238q41 113 41 317v813q0 70 -27 121q-47 92 -161 92h-224q-184 0 -184 -213v-1006q0 -63 -36 -99t-85 -36t-86 36t-37 99v1006q0 213 -184 213h-223q-115 0 -160 -92 q-27 -51 -26 -121v-813z" />
<glyph unicode="V" horiz-adv-x="1597" d="M70 1434q0 -25 6 -45l295 -1164q27 -111 92 -164q76 -61 223 -61h291q160 0 231 63q59 49 86 162l295 1164q6 20 6 45q0 74 -49 127q-55 61 -149 61h-236q-121 0 -174 -84q-31 -49 -43 -149l-110 -881l-113 881q-12 100 -43 149q-53 84 -172 84h-238q-94 0 -149 -61 q-49 -53 -49 -127z" />
<glyph unicode="W" horiz-adv-x="2566" d="M76 1419l196 -1140q27 -166 88 -222q63 -57 246 -57h285q193 0 248 57q41 45 69 244l111 797l108 -803q29 -197 70 -242q53 -53 248 -53h285q174 0 249 76q59 60 84 203l197 1140v17q0 186 -176 186h-176q-129 0 -178 -94q-29 -55 -48 -207l-98 -801l-131 811 q-25 154 -76 211q-72 80 -235 80h-260q-166 0 -230 -80q-45 -57 -69 -211l-131 -811l-99 801q-23 170 -39 207q-45 94 -186 94h-176q-177 0 -177 -183q0 -10 1 -20z" />
<glyph unicode="X" horiz-adv-x="1591" d="M74 102q0 -25 10 -49q23 -53 168 -53h147q199 0 246 39q33 27 100 203l78 204l86 -200q33 -78 50.5 -118t19.5 -44q33 -55 82 -69.5t194 -14.5h148q145 0 168 53q10 27 10 51q0 66 -82 191l-317 487l317 545q82 137 82 193q0 25 -10 49q-23 53 -168 53h-148 q-139 0 -194 -16q-51 -14 -82 -68q-2 -4 -19.5 -44t-50.5 -118l-86 -200l-78 202q-68 178 -100 205q-47 39 -246 39h-147q-145 0 -168 -53q-10 -25 -10 -47q0 -45 82 -195l293 -536l-293 -496q-82 -137 -82 -193z" />
<glyph unicode="Y" horiz-adv-x="1591" d="M80 1524q0 -35 26.5 -89.5t55.5 -107.5l379 -760v-354q0 -213 184 -213h238q172 0 172 213v354l370 760q29 53 55.5 108.5t26.5 90.5q0 25 -8 43q-23 53 -170 53h-147q-139 0 -195 -16q-51 -14 -82 -68q-4 -6 -20.5 -46t-49.5 -116l-84 -200l-79 202q-72 178 -103 205 q-45 39 -241 39h-150q-145 0 -168 -53q-10 -25 -10 -45z" />
<glyph unicode="Z" horiz-adv-x="1503" d="M113 117q0 -86 86 -107q47 -10 215 -10h858q106 0 172 92q23 35 22 92q0 66 -26 111q-37 63 -117 80q-51 10 -209 10h-266l471 717q66 98 80 127q35 74 35 141v121q0 96 -97 121q-37 10 -141 10h-768q-90 0 -141 -10q-74 -18 -115 -78q-27 -39 -27 -100q0 -55 21 -99 q45 -100 194 -100h342l-475 -729q-35 -51 -51 -78t-18 -31q-45 -82 -45 -161v-119z" />
<glyph unicode="[" horiz-adv-x="720" d="M158 -117h485v101h-223v1650h223v101h-485v-1852z" />
<glyph unicode="\" horiz-adv-x="968" d="M16 1090q0 -53 29 -89q43 -51 127 -61v-768q0 -172 152 -172h254q137 0 137 164v1096q0 61 57 81q49 20 176 23q82 2 111 72q8 18 8 45q0 53 -33 86q-41 43 -100 53q-10 2 -51 2h-109h-242q-213 0 -288 -94q-70 -82 -70 -303q-106 -16 -145 -86q-12 -23 -13 -49z" />
<glyph unicode="]" horiz-adv-x="720" d="M154 -16v-101h485v1852h-485v-101h223v-1650h-223z" />
<glyph unicode="^" horiz-adv-x="1003" d="M123 1290h270l135 172l129 -172h279l-244 324h-325z" />
<glyph unicode="_" horiz-adv-x="1167" d="M29 -150v-139l1200 6v133h-1200z" />
<glyph unicode="`" horiz-adv-x="792" d="M123 1606l346 -318h256l-211 318h-391z" />
<glyph unicode="a" horiz-adv-x="1501" d="M115 334q0 -96 24 -160q43 -117 154 -168q92 -41 201 -41q192 0 374 154q43 -119 179 -119h200q90 0 135 63q41 53 42 130v469q0 170 -19 247q-35 150 -145 228q-157 110 -500 110h-6q-236 0 -361 -53q-74 -31 -131 -94q-65 -75 -65 -144q0 -68 57 -106q33 -25 106 -25 h162q70 0 94 27q84 90 150 100q14 2 27 2q68 0 84 -65q4 -18 4 -34q0 -34 -17 -60q-45 -70 -268 -70h-57q-266 0 -365 -150q-59 -90 -59 -241zM662 381q0 68 77 102l142 60q1 -26 1 -48q0 -65 -5 -89q-12 -78 -68 -109q-26 -14 -51.5 -14t-48.5 14q-47 31 -47 84z" />
<glyph unicode="b" horiz-adv-x="1501" d="M156 190q0 -190 159 -190h187q106 0 160 41q33 27 67 102q106 -119 215 -155q61 -23 121 -23q106 0 197 60q111 74 147 223q10 45 15.5 113.5t5.5 160.5v260q0 303 -216 424q-72 41 -170 41h-3q-165 0 -293 -110q-23 -18 -34 -27l-12 -10q-6 0 -6 51v242q0 123 -24 170 q-35 59 -140 59h-217q-104 0 -137 -61q-22 -43 -22 -138v-8v-1225zM696 424v328q0 96 92 96q39 0 69 -27.5t30 -77.5v-317q0 -100 -94 -100q-39 0 -68 25.5t-29 72.5z" />
<glyph unicode="c" horiz-adv-x="1456" d="M119 612q0 -297 98 -432q92 -127 301 -180q134 -35 270 -35h15q375 6 526 234q61 94 62 168q0 20 -7 36q-16 39 -43 56q-33 20 -108 20h-203q-66 0 -98.5 -27.5t-63.5 -99.5q-25 -61 -82 -73q-12 -3 -23 -3q-23 0 -44 11q-57 31 -57 176v211q0 125 6 160q6 51 41 79 q12 12 47 17q31 0 49 -12q31 -20 39 -80q10 -59 28 -76q51 -43 215 -43h179q109 0 120 88q1 9 1 19q0 42 -21 100q-23 74 -61 121q-163 202 -547 202h-4q-35 0 -70 -2t-70 -6q-88 -10 -120 -18q-225 -59 -326 -293q-49 -115 -49 -318z" />
<glyph unicode="d" horiz-adv-x="1499" d="M147 522q0 -205 27 -299q37 -127 141 -198q90 -57 197 -58q63 0 119 21q109 37 215 155q35 -76 67 -102q53 -41 160 -41h189q160 0 159 190v1225q0 102 -24 146q-35 61 -135 61h-220q-104 0 -139 -59q-24 -45 -24 -161v-9v-242q0 -51 -7 -51l-11 9t-34 28 q-128 110 -294 110h-3q-94 0 -170 -41q-213 -121 -213 -424v-260zM688 426v317q0 49 30 77t68 28q92 0 93 -96v-328q0 -47 -29 -72.5t-68 -25.5q-94 0 -94 100z" />
<glyph unicode="e" horiz-adv-x="1531" d="M131 492q12 -299 227 -431q164 -96 451 -96q246 0 403 68q193 86 222 246q3 21 3 38q0 44 -22 64q-35 27 -139 27h-234q-104 0 -137 -39q-16 -29 -33.5 -59.5t-52.5 -41.5q-16 -4 -32 -4q-37 0 -68 23q-37 27 -43 84q-2 10 -2 47v104h473h94q37 0 49 2q92 12 136 62.5 t44 154.5q0 66 -18 131q-72 231 -324 320q-166 57 -362 57q-287 0 -449 -131q-188 -153 -188 -544q0 -40 2 -82zM674 752v16q0 106 51 141q20 18 63 19q55 0 80 -25q31 -31 41 -69q2 -10 3 -30v-15q0 -16 -1 -37h-237z" />
<glyph unicode="f" horiz-adv-x="968" d="M16 1090q0 -53 29 -89q43 -51 127 -61v-768q0 -172 152 -172h254q137 0 137 164v776h176q137 0 170 94q10 27 10 52q0 40 -24 77q-29 45 -60 54q-23 8 -104 8h-121q-39 0 -43 3t-4 32q0 61 57 81q49 20 176 23q82 2 111 72q8 18 8 45q0 53 -33 86q-41 43 -100 53 q-10 2 -51 2h-109h-242q-213 0 -288 -94q-70 -82 -70 -303q-106 -16 -145 -86q-12 -23 -13 -49z" />
<glyph unicode="g" horiz-adv-x="1495" d="M123 -141q0 -51 31 -84q104 -111 258 -162q119 -43 237 -43h96q393 0 547 147q129 125 129 445v860q0 190 -159 190h-232q-102 0 -143 -35.5t-47 -117.5q-14 18 -26.5 36.5t-27.5 39.5q-37 43 -100 77q-70 35 -174 35q-117 0 -197 -43q-111 -59 -143 -203 q-25 -98 -25 -313v-239q0 -131 17 -193q33 -129 143 -199q90 -57 217 -57q236 0 355 186v-182q0 -178 -129 -178q-35 0 -58 14q-35 18 -55 45q-8 10 -14.5 19.5t-14.5 19.5q-33 27 -110 27h-244q-92 0 -119 -43q-12 -23 -12 -49zM688 487v297q0 51 33 84q29 27 72 27 q86 0 86 -88v-328q0 -96 -93 -96q-39 0 -68.5 27.5t-29.5 76.5z" />
<glyph unicode="h" horiz-adv-x="1501" d="M150 172q0 -172 149 -172h254q137 0 137 164v561q0 55 30 86t68 31q41 0 69 -31t28 -86v-561q0 -164 137 -164h254q152 0 151 172v588q0 176 -30 266q-49 137 -187 195q-66 28 -142 28h-5q-221 0 -373 -170v379q0 164 -137 164h-254q-150 0 -149 -172v-1278z" />
<glyph unicode="i" horiz-adv-x="768" d="M127 1309v98q0 127 100 164q51 18 205 18q131 0 174 -18q100 -45 101 -164v-98h-580zM150 164q0 -164 137 -164h254q150 0 149 172v868q0 172 -149 172h-254h-2q-135 0 -135 -163v-885z" />
<glyph unicode="j" horiz-adv-x="768" d="M-109 -297q0 -47 19 -74q27 -41 92 -51q8 -2 145 -2h132q76 0 128 3t80 7q39 6 72 21.5t58.5 43t42 70.5t22.5 107q2 18 3 68.5t1 136.5v1007q0 172 -151 172h-252h-2q-138 0 -138 -163v-951q0 -147 -12 -190t-59 -68q-23 -4 -43.5 -9t-40.5 -9q-63 -16 -84 -60 q-12 -25 -13 -59zM123 1309v98q0 127 100 164q51 18 203 18q131 0 174 -18q102 -47 102 -164v-98h-579z" />
<glyph unicode="k" horiz-adv-x="1597" d="M154 164q0 -164 137 -164h254q150 0 149 172v387l191 -311q47 -78 76.5 -123t39.5 -59q41 -53 84 -62q12 -2 50.5 -3t101.5 -1h96q135 0 170 8q51 10 78 49q12 14 12 41q0 47 -100 197l-213 323l186 322q78 137 78 176q0 25 -10 41q-25 39 -74 49q-29 6 -108 6h-178 q-113 0 -162 -36q-31 -23 -115 -148l-203 -303v723q0 174 -149 174h-254q-137 0 -137 -164v-1294z" />
<glyph unicode="l" horiz-adv-x="768" d="M150 164q0 -164 137 -164h254q149 0 149 172v1276q0 174 -149 174h-254q-137 0 -137 -164v-1294z" />
<glyph unicode="m" horiz-adv-x="2230" d="M150 164q0 -164 137 -164h254q150 0 149 172v578q0 55 29 86.5t67 31.5q88 0 88 -110v-594q0 -164 138 -164h254q152 0 151 172v588q0 55 31 90q29 29 65 29q86 0 86 -109v-606q0 -164 138 -164h254q151 0 151 172v682q0 317 -248 379q-55 14 -116 14q-199 0 -373 -186 q-125 186 -350 186q-221 0 -365 -180q0 145 -149 145h-254q-137 0 -137 -163v-885z" />
<glyph unicode="n" horiz-adv-x="1490" d="M150 164q0 -164 137 -164h254q150 0 149 172v578q0 55 29 86.5t67 31.5q88 0 88 -110v-594q0 -164 138 -164h254q152 0 151 172v578q0 78 -1 127t-3 69q-12 96 -57 162q-96 139 -301 139q-221 0 -365 -180q0 145 -149 145h-254q-137 0 -137 -163v-885z" />
<glyph unicode="o" horiz-adv-x="1492" d="M133 541q0 -295 186 -457q137 -119 441 -119q225 0 342 53q324 158 323 490v199q0 332 -323 489q-111 53 -334 53q-308 0 -449 -123q-186 -162 -186 -440v-145zM676 449v317q0 49 30.5 76.5t73.5 27.5q41 0 72 -27.5t31 -76.5v-317q0 -49 -31 -77t-72 -28q-43 0 -73.5 28 t-30.5 77z" />
<glyph unicode="p" horiz-adv-x="1499" d="M143 -217q0 -102 25 -145q33 -61 135 -62h219q104 0 140 59q24 43 24 161v9v254q0 53 6 54l12 -9l33 -30q131 -109 297 -109q98 0 170 39q215 119 215 424v256q0 180 -22 277q-37 150 -148 227q-90 61 -192 61q-59 0 -123 -22q-104 -41 -215 -160q-35 76 -68 102 q-53 43 -159 43h-189q-160 0 -160 -190v-1239zM686 459v323q0 47 28.5 73t67.5 26q94 0 95 -101v-313q0 -49 -30 -77t-69 -28q-92 0 -92 97z" />
<glyph unicode="q" horiz-adv-x="1490" d="M135 428q0 -305 215 -424q72 -39 170 -39q166 0 297 109q23 20 34 30l11 9q6 0 6 -54v-254q0 -125 25 -170q35 -59 139 -59h217q102 0 137 62q23 45 23 145v1239q0 190 -160 190h-186q-109 0 -160 -43q-35 -29 -67 -104q-90 147 -213 174q-47 10 -95 10q-133 0 -225 -61 q-104 -72 -141 -203q-27 -94 -27 -301v-256zM678 467v313q0 100 94 101q39 0 67.5 -26t28.5 -73v-323q0 -96 -92 -97q-39 0 -68.5 28t-29.5 77z" />
<glyph unicode="r" horiz-adv-x="1193" d="M154 164q0 -164 137 -164h254q150 0 149 172v326q0 143 113 213q49 29 154 41l46 4l46 4q25 2 41 8t26 20.5t14.5 41t4.5 71.5v191q0 92 -26 123.5t-85 31.5q-109 0 -211 -84q-98 -84 -123 -178v55q0 172 -149 172h-254q-137 0 -137 -163v-885z" />
<glyph unicode="s" horiz-adv-x="1501" d="M129 848q0 -78 27 -139q72 -174 450 -269l58 -14q27 -6 52 -12t52 -11q74 -21 104 -51q19 -19 20 -45q0 -15 -7 -33q-23 -53 -90 -53q-92 0 -125 70q-27 63 -135 63h-242q-96 0 -117 -63q-4 -16 -4 -29q0 -59 47 -119q143 -178 526 -178q63 0 144 6q391 25 497 205 q49 82 50 191q0 100 -39 180q-72 152 -375 194l-74 11q-160 20 -229 84q-18 16 -23 51q-4 33 4 45q31 59 88 61h4q85 0 132 -80q12 -23 22 -35t26.5 -19t41 -9t63.5 -2h176q113 0 119 80q1 6 1 13q0 68 -58 136q-139 170 -596 170q-35 0 -66.5 -1t-60.5 -3 q-262 -18 -385 -168q-78 -96 -78 -227z" />
<glyph unicode="t" horiz-adv-x="983" d="M57 1051q10 -115 127 -115v-510q0 -279 66 -354q45 -51 104 -64q33 -8 172 -8h121q82 0 133 2t72 6q61 8 100 64q27 38 27 77q0 26 -12 54q-20 45 -84 57q-47 10 -71 15.5t-28 7.5q-61 33 -61 168v47q2 14 2 22v15v401h59q119 0 154 90q12 32 12 60q0 6 -1 12 q-3 32 -18.5 55t-40 37t-54.5 20q-11 2 -111 2q0 145 -12 187q-25 69 -116 69h-3h-272q-98 0 -121 -59q-16 -43 -17 -197q-127 0 -127 -143v-18z" />
<glyph unicode="u" horiz-adv-x="1474" d="M137 461q0 -78 1 -127t3 -70q12 -96 58 -162q94 -137 299 -137q227 0 366 170q0 -135 150 -135h254q137 0 137 162v887q0 163 -135 163h-2h-254q-150 0 -150 -172v-579q0 -55 -29.5 -87t-66.5 -32q-88 0 -88 111v596q0 163 -135 163h-2h-254q-152 0 -152 -172v-579z" />
<glyph unicode="v" horiz-adv-x="1392" d="M43 1034q0 -63 29 -155l196 -623q45 -145 74 -190q31 -51 90 -62q12 -2 55 -3t119 -1h217q74 0 117 1t57 3q59 10 90 62q27 45 74 190l197 623q29 92 28 155q0 178 -198 178h-160q-129 0 -180 -67q-39 -53 -70 -227l-63 -365l-64 365q-35 184 -71 233q-47 61 -179 61 h-159q-199 0 -199 -178z" />
<glyph unicode="w" horiz-adv-x="2222" d="M59 1112q0 -23 7.5 -67t21.5 -109l145 -686q39 -180 103 -219q45 -31 242 -31h217q178 0 233 76q39 51 53 213l60 592l59 -592q18 -174 53 -221q51 -68 234 -68h217q193 0 242 31q63 39 102 219l147 686q27 125 27 176q0 100 -123 100h-205q-141 0 -178 -67 q-8 -14 -18 -66.5t-21 -144.5l-65 -510l-64 491q-29 207 -78 250q-52 47 -249 47h-158q-197 0 -250 -47q-49 -43 -78 -250l-63 -491l-66 510q-25 184 -41 215q-33 63 -178 63h-203q-125 0 -125 -100z" />
<glyph unicode="x" horiz-adv-x="1363" d="M72 100q0 -29 14 -49q33 -51 143 -51h220q98 0 139 37q20 20 55 98l74 172l74 -172q37 -88 57 -104q37 -31 137 -31h219q111 0 144 51q12 18 12 45q0 45 -37 117l-61 104l-181 250l181 330q16 27 30.5 51.5t30.5 50.5q37 74 37 119q0 27 -12 45q-35 49 -144 49h-219 q-98 0 -139 -34q-23 -18 -55 -101l-74 -172l-74 172q-29 70 -53 94q-45 41 -141 41h-220q-111 0 -143 -49q-12 -18 -12 -45q0 -45 37 -119q16 -27 30.5 -51t30.5 -51l180 -330l-180 -250q-100 -137 -100 -217z" />
<glyph unicode="y" horiz-adv-x="1435" d="M53 1090q0 -35 25 -97l330 -854q63 -160 63 -205q0 -29 -12 -49q-25 -37 -73 -44t-95 -13q-82 -16 -109 -84q-10 -25 -10 -49q0 -45 31 -72q53 -47 190 -47h269q141 0 225 127q16 27 48 98.5t79 192.5l393 999q25 63 25 99q0 37 -17 65q-25 43 -76 51q-10 2 -39.5 3 t-78.5 1h-138q-152 0 -206 -90q-23 -37 -58 -211l-76 -385l-75 385q-31 162 -58 203q-59 98 -209 98h-135q-135 0 -162 -20q-51 -33 -51 -102z" />
<glyph unicode="z" horiz-adv-x="1331" d="M123 170q0 -39 12 -72q27 -80 135 -98q12 -2 49 -2h97h592q195 0 247 72q16 23 17 65v11q0 32 -10 59q-25 59 -109 76q-31 6 -135 6h-215l313 504l80 122q45 76 45 134q0 33 -16 65q-39 72 -135 94q-37 6 -156 6h-508q-111 0 -150 -6q-84 -12 -116 -55q-29 -35 -29 -78 q0 -90 119 -117q55 -12 190 -12h105l-305 -498q-66 -104 -74 -122q-43 -86 -43 -154z" />
<glyph unicode="{" horiz-adv-x="1101" d="M127 750q164 -23 238 -68q92 -57 114 -154q6 -31 6 -163v-115q0 -135 9 -176q18 -86 86 -156q76 -80 231 -119q119 -31 233 -30v102q-117 10 -210 74q-96 66 -117 149q-6 20 -6 158v104q0 246 -113 340q-88 74 -342 113q238 39 328 104q88 63 116 168q12 51 13 181v114 q0 61 1 96t3 46q8 59 65 118q90 94 262 113v102q-250 -6 -387 -88q-117 -68 -153 -186q-18 -66 -19 -211v-106q0 -207 -77 -285q-74 -74 -281 -107v-118z" />
<glyph unicode="|" horiz-adv-x="614" d="M254 -121h160v1862h-160v-1862z" />
<glyph unicode="}" horiz-adv-x="1101" d="M96 -129v-102q117 0 234 30q156 39 231 119q68 70 86 156q8 41 8 176v115q0 133 7 163q23 96 114 154q74 45 238 68v118q-207 33 -281 107q-78 78 -78 285v106q0 145 -18 211q-37 118 -154 186q-139 82 -387 88v-102q172 -18 262 -113q57 -59 66 -118q2 -10 3 -45t1 -97 v-114q0 -129 12 -181q29 -102 115 -166q59 -45 164 -71q29 -8 70.5 -16.5t95.5 -18.5q-254 -39 -342 -113q-113 -94 -113 -340v-104q0 -137 -6 -158q-20 -84 -117 -149q-94 -63 -211 -74z" />
<glyph unicode="~" horiz-adv-x="1007" d="M135 1290h152q4 53 27.5 76t58.5 23q25 0 67 -13q217 -68 275 -67q47 0 88 18q123 59 149 258h-147q-25 -51 -45.5 -68.5t-48.5 -17.5q-29 0 -97 27l-36 14q-115 45 -191 45q-63 0 -108 -26q-119 -68 -144 -269z" />
<glyph unicode="&#xa1;" horiz-adv-x="776" d="M131 199q0 -139 64 -185q37 -25 129 -24h211q174 0 174 194q0 16 -1 37t-3 47l-29 350q-12 164 -41 205q-37 57 -164 58h-127q-92 0 -123 -41q-39 -51 -53 -222l-33 -337q-2 -23 -3 -43.5t-1 -38.5zM145 1247q0 -195 179 -194h206q106 0 152 82q29 53 29 116v131 q0 193 -187 193h-192q-186 0 -187 -197v-131z" />
<glyph unicode="&#xa2;" horiz-adv-x="1482" d="M137 815q0 -291 96 -428q161 -223 478 -223v-117h127v119q291 27 473 250q39 49 67 133q29 86 29 135h-541q0 -147 -63 -174q-41 -18 -68 0q-16 8 -26.5 18.5t-16.5 27.5t-9 45t-3 71v209q0 63 1 102t3 55q4 25 15.5 46.5t28.5 35t40 14.5t49 -14q49 -29 49 -192h541 q0 197 -111 329q-137 168 -452 197v150h-131v-146q-53 -4 -103.5 -11t-97.5 -17q-223 -55 -326 -293q-49 -115 -49 -322z" />
<glyph unicode="&#xa3;" horiz-adv-x="1480" d="M117 188q0 -66 30 -110q37 -57 125 -72q33 -6 123 -6h717q131 0 152 4q78 16 122 88q27 41 27 84q0 39 -20 74q-47 80 -138 94q-10 2 -49 3t-108 1h-283q39 23 71 51.5t54 63.5q10 16 24.5 45t30.5 67h88q104 0 134 7q31 8 60.5 41.5t29.5 99.5q0 35 -11 61 q-20 45 -88 58q-12 2 -37.5 3t-64.5 1l186 430q23 55 23 96q0 117 -166 117h-244q-115 0 -178 -92q-31 -45 -129 -279l-115 -272h-143q-61 -10 -86 -66q-14 -31 -14 -86q0 -41 12 -67q23 -47 121 -47q-6 -35 -33 -86q-29 -59 -78 -109q-35 -27 -73.5 -57.5t-57.5 -69.5 q-14 -29 -14 -70z" />
<glyph unicode="&#xa4;" horiz-adv-x="1146" d="M41 281l162 -162l90 90q123 -80 274 -80q131 0 264 80l91 -90l157 162l-90 90q78 113 78 264q0 139 -78 266l90 88l-157 164l-91 -90q-127 78 -274 78q-133 0 -264 -78l-90 90l-162 -164l90 -88q-76 -125 -76 -268q0 -129 76 -262zM309 635q0 100 72 176q74 76 180 76 q109 0 178 -76q74 -74 74 -176t-74 -178q-72 -74 -178 -74t-180 74q-72 78 -72 178z" />
<glyph unicode="&#xa8;" horiz-adv-x="976" d="M125 1307h326v274h-326v-274zM582 1307h325v274h-325v-274z" />
<glyph unicode="&#xa9;" horiz-adv-x="1638" d="M29 735q0 -336 235 -565q229 -223 557 -223q326 0 557 225q231 227 232 563q0 330 -232 555q-231 227 -557 228q-326 0 -559 -228q-233 -225 -233 -555zM209 735q0 264 176 446.5t436 182.5q256 0 432.5 -182.5t176.5 -446.5q0 -272 -176.5 -454.5t-432.5 -182.5 q-260 0 -436 182.5t-176 454.5zM371 731q0 -213 129 -348q131 -141 346 -141q154 0 261 94t144 268h-174q-14 -98 -75.5 -153.5t-155.5 -55.5q-131 0 -213 99q-82 96 -82 241q0 147 77 238.5t214 91.5q94 0 156.5 -53.5t80.5 -145.5h170q-27 174 -143 267q-109 86 -266 86 q-219 0 -344 -138q-125 -133 -125 -350z" />
<glyph unicode="&#xad;" horiz-adv-x="993" d="M123 596q0 -70 27 -109q39 -53 104 -75q49 -14 176 -15h180q63 0 101.5 1t52.5 3q88 16 133 86q27 39 27 109q0 66 -23 106q-43 72 -135 95q-37 6 -156 6h-180q-109 0 -141 -6q-113 -23 -146 -95q-20 -41 -20 -106z" />
<glyph unicode="&#xae;" horiz-adv-x="1638" d="M29 735q0 -336 235 -565q229 -223 557 -223q326 0 557 225q231 227 232 563q0 330 -232 555q-231 227 -557 228q-326 0 -559 -228q-233 -225 -233 -555zM209 735q0 264 176 446.5t436 182.5q256 0 432.5 -182.5t176.5 -446.5q0 -272 -176.5 -454.5t-432.5 -182.5 q-260 0 -436 182.5t-176 454.5zM502 264h180v385h115l243 -385h199l-258 400q221 39 221 260q0 276 -334 276h-366v-936zM682 803v244h164q176 0 176 -117q0 -80 -59 -109q-43 -18 -156 -18h-125z" />
<glyph unicode="&#xb4;" horiz-adv-x="788" d="M129 1290h254l344 322h-389z" />
<glyph unicode="&#xb8;" horiz-adv-x="946" d="M135 -510q160 -66 316 -65q123 0 192 45q100 63 111 178q6 94 -68 153q-66 53 -158 54q-20 0 -42.5 -3.5t-51.5 -7.5l96 156h-131l-145 -236l59 -47q57 14 101 15q45 0 75.5 -24.5t28.5 -69.5q-2 -41 -49 -70q-29 -16 -78 -17q-82 0 -207 48z" />
<glyph unicode="&#xbf;" horiz-adv-x="1490" d="M125 422q0 -143 65 -234q139 -188 641 -188q35 0 62.5 1t50.5 3q156 12 244 47q102 39 168 115q72 84 71 184q0 82 -47 129q-51 51 -174 51h-98q-121 0 -162 -71q-31 -66 -49 -105q-33 -76 -98.5 -71.5t-89.5 55.5q-27 57 6 133q16 33 131 117q117 84 151 157 q12 27 13 60q0 45 -21 78q-49 80 -178 80h-106q-92 0 -123 -13q-51 -18 -113 -98l-35 -45q-43 -25 -83 -46.5t-77 -41.5q-86 -55 -122 -144q-27 -61 -27 -153zM487 1268q0 -176 175 -176h206q164 0 164 172v159q0 195 -174 195h-217q-154 0 -154 -174v-176z" />
<glyph unicode="&#xc0;" horiz-adv-x="1710" d="M92 111q0 -111 121 -111h301q117 0 170 84q10 18 25.5 62t31.5 114h289q16 -72 31.5 -116t25.5 -60q53 -84 170 -84h302q117 0 116 115q0 45 -18 112l-344 1225q-31 109 -90 143q-45 27 -164 27h-346q-119 0 -164 -27q-61 -33 -92 -143l-344 -1225q-20 -68 -21 -116z M608 2062l346 -317h256l-211 317h-391zM803 606l82 563l84 -563h-166z" />
<glyph unicode="&#xc1;" horiz-adv-x="1710" d="M86 111q0 -111 119 -111h303q117 0 170 84q10 18 25.5 62t31.5 114h287q16 -70 31.5 -114t25.5 -62q53 -84 170 -84h303q117 0 117 115q0 45 -18 112l-344 1225q-31 109 -90 143q-45 27 -166 27h-344q-121 0 -166 -27q-59 -35 -90 -143l-345 -1225q-20 -68 -20 -116z M578 1745h253l345 321h-390zM795 606l84 563l84 -563h-168z" />
<glyph unicode="&#xc2;" horiz-adv-x="1710" d="M86 111q0 -111 119 -111h303q117 0 170 84q10 18 25.5 62t31.5 114h287q16 -70 31.5 -114t25.5 -62q53 -84 170 -84h303q117 0 117 115q0 45 -18 112l-344 1225q-31 109 -90 143q-45 27 -166 27h-344q-121 0 -166 -27q-59 -35 -90 -143l-345 -1225q-20 -68 -20 -116z M463 1745h272l135 172l129 -172h277l-242 323h-325zM795 606l84 563l84 -563h-168z" />
<glyph unicode="&#xc3;" horiz-adv-x="1710" d="M92 111q0 -111 121 -111h301q117 0 170 84q10 18 25.5 62t31.5 114h289q16 -72 31.5 -116t25.5 -60q53 -84 170 -84h302q117 0 116 115q0 45 -18 112l-344 1225q-31 109 -90 143q-45 27 -164 27h-346q-119 0 -164 -27q-61 -33 -92 -143l-344 -1225q-20 -68 -21 -116z M453 1745h151q4 55 26.5 77.5t57.5 22.5q27 0 68 -14q217 -68 276 -68q45 0 86 19q123 57 152 258h-150q-20 -49 -41.5 -67.5t-48.5 -18.5t-98 26l-39 15q-121 45 -193 45q-61 0 -106 -27q-121 -72 -141 -268zM803 606l82 563l84 -563h-166z" />
<glyph unicode="&#xc4;" horiz-adv-x="1710" d="M92 111q0 -111 121 -111h301q117 0 170 84q10 18 25.5 62t31.5 114h289q16 -72 31.5 -116t25.5 -60q53 -84 170 -84h302q117 0 116 115q0 45 -18 112l-344 1225q-31 109 -90 143q-45 27 -164 27h-346q-119 0 -164 -27q-61 -33 -92 -143l-344 -1225q-20 -68 -21 -116z M502 1745h325v272h-325v-272zM803 606l82 563l84 -563h-166zM961 1745h325v272h-325v-272z" />
<glyph unicode="&#xc5;" horiz-adv-x="1710" d="M86 111q0 -111 119 -111h303q117 0 170 84q10 18 25.5 62t31.5 114h287q16 -70 31.5 -114t25.5 -62q53 -84 170 -84h303q117 0 117 115q0 45 -18 112l-344 1225q-31 109 -90 143q-45 27 -166 27h-344q-121 0 -166 -27q-59 -35 -90 -143l-345 -1225q-20 -68 -20 -116z M578 2056q0 -176 114 -260q70 -51 193 -51q70 0 123 18q180 68 180 289q0 152 -78 234q-92 94 -236 94q-34 0 -61 -6q-55 -8 -98 -35q-137 -82 -137 -283zM748 2025q-12 154 77 197q63 29 123 -2q80 -41 80 -158q0 -111 -72 -157q-37 -25 -77 -25q-27 0 -52 12 q-69 33 -79 133zM795 606l84 563l84 -563h-168z" />
<glyph unicode="&#xc6;" horiz-adv-x="2316" d="M98 109q0 -109 119 -109h301q117 0 170 84q10 16 25.5 60t31.5 116h289q16 -59 26.5 -96t14.5 -51q31 -113 164 -113h768q100 0 145 10q74 20 117 86q23 39 23 105q0 63 -21 102q-43 76 -141 94q-35 6 -164 6h-303v236h264q129 0 164 6q86 14 127 84q25 43 25 96 q0 45 -19 80q-43 78 -147 96q-35 6 -166 7h-248v221h303q123 0 164 6q94 18 137 84q27 39 27 108q0 61 -21 97q-41 74 -116 92q-29 6 -136 6h-766q-35 0 -69 -10q-45 10 -123 10h-346q-119 0 -164 -27q-61 -33 -92 -143l-342 -1225q-20 -70 -21 -118zM807 606l82 563 l84 -563h-166z" />
<glyph unicode="&#xc7;" horiz-adv-x="1636" d="M133 653q0 -205 29 -309q49 -178 203 -283q125 -84 362 -104l-121 -205l58 -45q35 8 62.5 11t43.5 3q100 0 100 -96q0 -43 -49 -69q-29 -16 -78 -17q-80 0 -208 47l-48 -106q156 -68 320 -68q119 0 188 45q111 70 111 181q0 98 -67.5 151t-161.5 53q-18 0 -41 -2t-50 -6 l68 115q276 0 432 65q129 57 210 167t81 247q0 162 -209 162h-188q-104 0 -150 -55q-35 -41 -35 -93q0 -66 -10 -92q-12 -39 -63 -59q-68 -31 -129 2q-53 29 -62 96q-2 16 -3 65.5t-1 135.5v471q0 63 3 106t7 68q12 61 54 84q49 25 108 8q33 -10 59.5 -43t26.5 -76 q23 -158 191 -157h186q184 0 207 120q2 14 3 26.5t1 27.5q0 100 -72 207q-168 242 -655 241q-33 0 -59.5 -1t-49.5 -3q-225 -29 -334 -88q-176 -98 -233 -276q-37 -115 -37 -324v-328z" />
<glyph unicode="&#xc8;" horiz-adv-x="1392" d="M133 213q0 -213 170 -213h770q100 0 146 10q74 20 116 86q23 39 23 105q0 63 -21 102q-43 76 -141 94q-35 6 -164 6h-305v236h266q131 0 162 6q90 16 127 84q25 45 25 100q0 39 -17 76q-41 78 -147 96q-35 6 -166 7h-250v221h305q123 0 164 6q94 18 137 84q27 39 27 108 q0 61 -21 97q-41 74 -116 92q-29 6 -138 6h-763q-117 0 -162 -92q-27 -51 -27 -121v-1196zM455 2066l348 -319h256l-213 319h-391z" />
<glyph unicode="&#xc9;" horiz-adv-x="1392" d="M147 213q0 -90 19 -129q36 -84 151 -84h768q102 0 148 10q76 23 115 86q25 37 24 109q0 63 -20 98q-41 78 -144 94q-29 6 -164 6h-303v236h265q129 0 163 6q86 14 127 84q25 43 25 96q0 45 -18 80q-43 78 -148 96q-35 6 -166 7h-248v221h303q123 0 164 6q94 18 138 84 q29 45 28 111q0 59 -20 94q-39 74 -115 92q-29 6 -139 6h-766q-115 0 -160 -92q-27 -51 -27 -121v-1196zM451 1745h254l344 321h-390z" />
<glyph unicode="&#xca;" horiz-adv-x="1392" d="M139 213q0 -86 19 -129q40 -84 153 -84h768q100 0 146 10q74 20 116 86q23 39 23 105q0 63 -21 102q-43 76 -141 94q-35 6 -164 6h-303v236h264q129 0 164 6q86 14 127 84q25 43 25 96q0 45 -19 80q-43 78 -147 96q-35 6 -166 7h-248v221h303q123 0 164 6q94 18 137 84 q27 39 27 108q0 61 -20 97q-41 74 -117 92q-29 6 -135 6h-766q-117 0 -162 -92q-27 -51 -27 -121v-1196zM336 1745h272l135 172l129 -172h277l-242 323h-325z" />
<glyph unicode="&#xcb;" horiz-adv-x="1392" d="M131 213q0 -213 170 -213h770q100 0 146 10q74 20 116 86q23 39 23 105q0 63 -21 102q-43 76 -141 94q-35 6 -164 6h-305v236h264q129 0 164 6q90 16 127 84q25 45 25 100q0 39 -17 76q-41 78 -147 96q-35 6 -166 7h-250v221h305q123 0 164 6q94 18 137 84q27 39 27 108 q0 61 -21 97q-41 74 -116 92q-29 6 -138 6h-764q-117 0 -161 -92q-27 -51 -27 -121v-1196zM356 1745h326v272h-326v-272zM813 1745h326v272h-326v-272z" />
<glyph unicode="&#xcc;" horiz-adv-x="792" d="M137 213q0 -213 187 -213h235q174 0 174 213v1196q0 213 -184 213h-223q-117 0 -162 -92q-27 -51 -27 -121v-1196zM162 2062l348 -317h256l-213 317h-391z" />
<glyph unicode="&#xcd;" horiz-adv-x="792" d="M137 213q0 -213 187 -213h235q174 0 174 213v1196q0 213 -184 213h-223q-117 0 -162 -92q-27 -51 -27 -121v-1196zM154 1675h254l344 320h-390z" />
<glyph unicode="&#xce;" horiz-adv-x="792" d="M37 1745h270l137 172l129 -172h277l-242 323h-325zM137 213q0 -213 187 -213h235q174 0 174 213v1196q0 213 -184 213h-223q-117 0 -162 -92q-27 -51 -27 -121v-1196z" />
<glyph unicode="&#xcf;" horiz-adv-x="792" d="M51 1745h326v272h-326v-272zM137 213q0 -213 187 -213h235q174 0 174 213v1196q0 213 -184 213h-223q-117 0 -162 -92q-27 -51 -27 -121v-1196zM508 1745h326v272h-326v-272z" />
<glyph unicode="&#xd1;" horiz-adv-x="1851" d="M156 213q0 -213 184 -213h178q172 0 172 213v854l180 -799q33 -147 56 -188q45 -80 151 -80h396h102t53 2q66 8 105 51t49 109q6 37 6 141v1106q0 213 -186 213h-177q-172 0 -172 -213v-778l-166 702q-43 184 -79 228q-55 61 -228 61h-311q-66 0 -103.5 -1t-52.5 -3 q-63 -8 -102 -51t-49 -111q-6 -35 -6 -141v-1102zM612 1745h150q8 57 28.5 77.5t57.5 20.5q25 0 67 -12q217 -68 275 -68q47 0 88 19q125 59 152 258h-150q-20 -49 -41.5 -67.5t-48.5 -18.5t-98 26l-39 15q-121 45 -193 45q-61 0 -106 -27q-121 -72 -142 -268z" />
<glyph unicode="&#xd2;" horiz-adv-x="1630" d="M125 612q0 -442 285 -592q141 -74 432 -73q387 0 528 123q199 174 199 530v418q0 358 -199 532q-141 123 -530 123q-289 0 -430 -74q-285 -150 -285 -591v-396zM582 2062l348 -317h254l-211 317h-391zM719 436v746q0 66 38 104.5t89 38.5t88 -39t37 -108v-736 q0 -70 -37 -108.5t-88 -38.5t-89 37.5t-38 103.5z" />
<glyph unicode="&#xd3;" horiz-adv-x="1630" d="M143 612q0 -442 285 -592q143 -74 432 -73q385 0 531 123q198 174 198 530v418q0 360 -198 532q-143 125 -531 125q-293 0 -432 -76q-285 -150 -285 -591v-396zM518 1745h254l344 321h-389zM739 436v746q0 66 38 104.5t87 38.5q51 0 88 -39t37 -108v-736 q0 -70 -37 -108.5t-88 -38.5q-49 0 -87 37.5t-38 103.5z" />
<glyph unicode="&#xd4;" horiz-adv-x="1630" d="M125 612q0 -442 285 -592q141 -74 432 -73q387 0 528 123q199 174 199 530v418q0 358 -199 532q-141 123 -530 123q-289 0 -430 -74q-285 -150 -285 -591v-396zM440 1745h271l135 172l129 -172h278l-243 323h-326zM719 436v746q0 66 38 104.5t89 38.5t88 -39t37 -108 v-736q0 -70 -37 -108.5t-88 -38.5t-89 37.5t-38 103.5z" />
<glyph unicode="&#xd5;" horiz-adv-x="1630" d="M137 612q0 -442 285 -592q141 -74 434 -73q383 0 528 123q199 174 199 530v418q0 360 -199 532q-143 125 -530 125q-293 0 -432 -76q-285 -150 -285 -591v-396zM475 1745h150q4 53 26.5 75.5t59.5 22.5q25 0 67 -12q217 -68 275 -68q47 0 88 19q117 57 151 258h-149 q-20 -49 -42 -67.5t-50 -18.5q-31 0 -99 26l-37 15q-115 45 -190 45q-63 0 -109 -27q-121 -72 -141 -268zM733 436v746q0 66 38 104.5t87 38.5q51 0 88 -39t37 -108v-736q0 -70 -37 -108.5t-88 -38.5q-49 0 -87 37.5t-38 103.5z" />
<glyph unicode="&#xd6;" horiz-adv-x="1630" d="M125 612q0 -442 285 -592q141 -74 432 -73q387 0 528 123q199 174 199 530v418q0 358 -199 532q-141 123 -530 123q-289 0 -430 -74q-285 -150 -285 -591v-396zM463 1745h325v272h-325v-272zM719 436v746q0 66 38 104.5t89 38.5t88 -39t37 -108v-736q0 -70 -37 -108.5 t-88 -38.5t-89 37.5t-38 103.5zM920 1745h325v272h-325v-272z" />
<glyph unicode="&#xd7;" horiz-adv-x="1517" d="M205 305l237 -237l344 342l340 -340l244 243l-340 342l340 340l-237 238l-340 -340l-342 340l-244 -244l342 -342z" />
<glyph unicode="&#xd9;" horiz-adv-x="1644" d="M150 596q0 -205 40 -317q55 -148 209 -238q168 -94 459 -94q299 0 473 94q156 86 211 238q41 113 41 317v813q0 70 -27 121q-47 92 -161 92h-224q-184 0 -184 -213v-1006q0 -63 -36 -99t-85 -36t-86 36t-37 99v1006q0 213 -184 213h-223q-115 0 -160 -92 q-27 -51 -26 -121v-813zM641 2062l346 -317h256l-211 317h-391z" />
<glyph unicode="&#xda;" horiz-adv-x="1644" d="M156 596q0 -201 41 -317q57 -150 211 -238q168 -94 458 -94q297 0 471 94q156 86 211 238q41 113 41 317v813q0 70 -26 121q-47 92 -162 92h-223q-182 0 -183 -213v-1006q0 -63 -35.5 -99t-87.5 -36q-49 0 -85.5 36t-36.5 99v1006q0 213 -185 213h-221q-117 0 -162 -92 q-27 -51 -26 -121v-813zM567 1745h254l346 321h-389z" />
<glyph unicode="&#xdb;" horiz-adv-x="1644" d="M150 596q0 -205 40 -317q55 -148 209 -238q168 -94 459 -94q299 0 473 94q156 86 211 238q41 113 41 317v813q0 70 -27 121q-47 92 -161 92h-224q-184 0 -184 -213v-1006q0 -63 -36 -99t-85 -36t-86 36t-37 99v1006q0 213 -184 213h-223q-115 0 -160 -92 q-27 -51 -26 -121v-813zM444 1745h271l135 172l129 -172h278l-243 323h-326z" />
<glyph unicode="&#xdc;" horiz-adv-x="1644" d="M156 596q0 -201 41 -317q57 -150 211 -238q168 -94 458 -94q297 0 471 94q156 86 211 238q41 113 41 317v813q0 70 -26 121q-47 92 -162 92h-223q-182 0 -183 -213v-1006q0 -63 -35.5 -99t-87.5 -36q-49 0 -85.5 36t-36.5 99v1006q0 213 -185 213h-221q-117 0 -162 -92 q-27 -51 -26 -121v-813zM487 1745h326v272h-326v-272zM944 1745h326v272h-326v-272z" />
<glyph unicode="&#xdd;" horiz-adv-x="1591" d="M80 1524q0 -35 26.5 -89.5t55.5 -107.5l379 -760v-354q0 -213 184 -213h238q172 0 172 213v354l370 760q29 53 55.5 108.5t26.5 90.5q0 25 -8 43q-23 53 -170 53h-147q-139 0 -195 -16q-51 -14 -82 -68q-4 -6 -20.5 -46t-49.5 -116l-84 -200l-79 202q-72 178 -103 205 q-45 39 -241 39h-150q-145 0 -168 -53q-10 -25 -10 -45zM592 1745h254l346 321h-389z" />
<glyph unicode="&#xdf;" horiz-adv-x="1630" d="M16 1090q0 -53 29 -89q43 -51 127 -61v-768q0 -172 152 -172h254q137 0 137 164v1096q0 59 51 79q20 8 62 13.5t108 9.5h4q61 -16 74 -62q2 -6 2 -112q0 -57 -37 -162q-72 -147 -72 -221q0 -143 66 -279q68 -133 67 -188q0 -33 -16 -55.5t-39 -22.5q-29 0 -49 21 l-160 -254q18 -20 131 -33q88 -12 154 -12q176 0 332 90q170 102 170 247q0 119 -72 252.5t-72 198.5q0 63 74 209q23 61 42 118.5t19 106.5q0 371 -624 412q-53 4 -94 5t-74 -1l-230 2q-211 2 -288 -94q-70 -82 -70 -303q-106 -16 -145 -86q-12 -23 -13 -49z" />
<glyph unicode="&#xe0;" horiz-adv-x="1501" d="M123 334q0 -92 24 -160q41 -106 127 -156q96 -53 228 -53q190 0 372 154q43 -119 179 -119h202q88 0 134 63q41 53 41 130v469q0 170 -19 247q-35 150 -145 228q-158 111 -506 110q-236 0 -361 -53q-76 -35 -131 -96q-66 -72 -65 -144q0 -66 57 -104q33 -25 107 -25h161 q70 0 95 27q84 90 149 100q92 14 111 -63q12 -55 -13 -94q-45 -70 -266 -70h-59q-264 0 -363 -150q-59 -90 -59 -241zM543 1679l346 -319h256l-211 319h-391zM670 379q-1 71 75 104l142 60q2 -104 -4 -137q-12 -78 -68 -109q-27 -14 -53.5 -13t-47 14t-32.5 34.5t-12 46.5z " />
<glyph unicode="&#xe1;" horiz-adv-x="1501" d="M123 334q0 -92 24 -160q41 -106 127 -156q96 -53 228 -53q190 0 372 154q43 -119 179 -119h202q88 0 134 63q41 53 41 130v469q0 170 -19 247q-35 150 -145 228q-158 111 -506 110q-236 0 -361 -53q-76 -35 -131 -96q-66 -72 -65 -144q0 -66 57 -104q33 -25 107 -25h161 q70 0 95 27q84 90 149 100q92 14 111 -63q12 -55 -13 -94q-45 -70 -266 -70h-59q-264 0 -363 -150q-59 -90 -59 -241zM518 1360h254l344 321h-389zM670 379q-1 71 75 104l142 60q2 -104 -4 -137q-12 -78 -68 -109q-27 -14 -53.5 -13t-47 14t-32.5 34.5t-12 46.5z" />
<glyph unicode="&#xe2;" horiz-adv-x="1501" d="M123 334q0 -92 24 -160q41 -106 127 -156q96 -53 228 -53q190 0 372 154q43 -119 179 -119h202q88 0 134 63q41 53 41 130v469q0 170 -19 247q-35 150 -145 228q-158 111 -506 110q-236 0 -361 -53q-76 -35 -131 -96q-66 -72 -65 -144q0 -66 57 -104q33 -25 107 -25h161 q70 0 95 27q84 90 149 100q92 14 111 -63q12 -55 -13 -94q-45 -70 -266 -70h-59q-264 0 -363 -150q-59 -90 -59 -241zM430 1360h272l136 172l129 -172h276l-242 323h-325zM670 379q-1 71 75 104l142 60q2 -104 -4 -137q-12 -78 -68 -109q-27 -14 -53.5 -13t-47 14 t-32.5 34.5t-12 46.5z" />
<glyph unicode="&#xe3;" horiz-adv-x="1497" d="M115 334q0 -96 24 -160q43 -117 154 -168q92 -41 201 -41q192 0 374 154q43 -119 179 -119h200q90 0 135 63q41 53 41 130v469q0 170 -18 247q-35 150 -145 228q-158 111 -506 110q-236 0 -361 -53q-74 -31 -131 -94q-66 -76 -65 -146q0 -66 57 -104q33 -25 106 -25h162 q70 0 94 27q84 90 150 100q92 14 111 -63q12 -55 -13 -94q-45 -70 -268 -70h-57q-266 0 -365 -150q-59 -90 -59 -241zM416 1360h149q4 53 27.5 76.5t60.5 23.5q25 0 66 -12q221 -70 276 -70q45 0 86 19q125 59 152 258h-150q-20 -49 -41.5 -68.5t-52.5 -19.5q-29 0 -96 28 l-37 17q-98 45 -184 45q-63 0 -115 -29q-121 -72 -141 -268zM662 379q-1 69 77 104l142 60q2 -104 -4 -137q-12 -78 -68 -109q-53 -29 -100 0q-47 31 -47 82z" />
<glyph unicode="&#xe4;" horiz-adv-x="1501" d="M115 334q0 -96 24 -160q43 -117 154 -168q92 -41 201 -41q192 0 374 154q43 -119 179 -119h200q90 0 135 63q41 53 41 130v469q0 170 -18 247q-35 150 -145 228q-158 111 -506 110q-236 0 -361 -53q-74 -31 -131 -94q-66 -76 -65 -146q0 -66 57 -104q33 -25 106 -25h162 q70 0 94 27q84 90 150 100q92 14 111 -63q12 -55 -13 -94q-45 -70 -268 -70h-57q-266 0 -365 -150q-59 -90 -59 -241zM442 1360h326v272h-326v-272zM662 379q-1 69 77 104l142 60q2 -104 -4 -137q-12 -78 -68 -109q-53 -29 -100 0q-47 31 -47 82zM899 1360h326v272h-326 v-272z" />
<glyph unicode="&#xe5;" horiz-adv-x="1501" d="M123 334q0 -92 24 -160q41 -106 127 -156q96 -53 228 -53q190 0 372 154q43 -119 179 -119h202q88 0 134 63q41 53 41 130v469q0 170 -19 247q-35 150 -145 228q-158 111 -506 110q-236 0 -361 -53q-76 -35 -131 -96q-66 -72 -65 -144q0 -66 57 -104q33 -25 107 -25h161 q70 0 95 27q84 90 149 100q92 14 111 -63q12 -55 -13 -94q-45 -70 -266 -70h-59q-264 0 -363 -150q-59 -90 -59 -241zM549 1671q0 -174 115 -260q70 -51 192 -51q74 0 123 18q180 70 180 289q0 150 -78 234q-88 94 -233 94q-33 0 -64 -6q-59 -12 -98 -35q-137 -82 -137 -283 zM670 379q-1 71 75 104l142 60q2 -104 -4 -137q-12 -78 -68 -109q-27 -14 -53.5 -13t-47 14t-32.5 34.5t-12 46.5zM719 1640q-12 156 80 199q61 29 121 -4q80 -41 79 -156q0 -115 -69 -159q-35 -23 -78 -23q-27 0 -51 10q-72 33 -82 133z" />
<glyph unicode="&#xe6;" horiz-adv-x="2293" d="M115 334q0 -96 24 -160q43 -115 152 -168q94 -41 203 -41q193 0 374 154q43 -119 179 -119h200h27q139 -35 301 -35q246 0 403 68q193 86 222 246q12 74 -19 102q-35 27 -139 27h-234q-104 0 -137 -39q-16 -29 -33.5 -59.5t-52.5 -41.5q-55 -14 -100 19q-37 27 -43 84 q-2 10 -2 47v104h473h94q37 0 49 2q92 12 136 62.5t44 154.5q0 66 -18 131q-72 231 -324 320q-166 57 -362 57q-209 0 -350 -69q-166 68 -428 67q-236 0 -361 -53q-74 -31 -131 -94q-66 -76 -65 -146q0 -66 57 -104q33 -25 106 -25h162q70 0 94 27q84 90 150 100 q92 14 111 -63q12 -55 -13 -94q-45 -70 -268 -70h-57q-266 0 -365 -150q-59 -90 -59 -241zM662 379q-1 69 77 104l142 60q2 -104 -4 -137q-12 -78 -68 -109q-53 -29 -100 0q-47 31 -47 82zM1440 752q-4 119 51 157q20 18 63 19q55 0 80 -25q31 -31 41 -69q2 -10 3 -30 t-1 -52h-237z" />
<glyph unicode="&#xe7;" horiz-adv-x="1456" d="M125 612q0 -297 98 -432q125 -172 428 -205l-125 -200l60 -45q59 14 98 14q106 0 107 -96q0 -41 -48 -70q-29 -16 -77 -16q-80 0 -209 47l-47 -107q156 -68 315 -67q121 0 190 45q113 70 113 178q0 49 -18.5 88t-49 65.5t-71.5 40t-86 13.5q-20 0 -43 -3t-51 -7l67 110 h33q373 0 526 234q61 94 62 168q0 20 -6 36q-16 39 -43 56q-33 20 -109 20h-203q-68 0 -100.5 -27.5t-61.5 -99.5q-25 -61 -81 -73q-53 0 -68 8q-55 31 -55 176v211q0 63 1 103t3 57q10 53 41 79q12 12 47 17q31 0 49 -12q31 -20 39 -80q10 -59 29 -76q51 -43 217 -43h176 q121 0 121 88q6 47 -21 119q-23 74 -61 121q-164 203 -551 202q-35 0 -70 -2t-69 -6q-51 0 -121 -18q-225 -59 -326 -293q-49 -115 -49 -318z" />
<glyph unicode="&#xe8;" horiz-adv-x="1531" d="M131 492q12 -299 227 -431q164 -96 451 -96q246 0 403 68q193 86 222 246q12 74 -19 102q-35 27 -139 27h-234q-104 0 -137 -39q-16 -29 -33.5 -59.5t-52.5 -41.5q-55 -14 -100 19q-37 27 -43 84q-2 10 -2 47v104h473h94q37 0 49 2q92 12 136 62.5t44 154.5q0 66 -18 131 q-72 231 -324 320q-166 57 -362 57q-287 0 -449 -131q-207 -168 -186 -626zM549 1679l348 -319h254l-211 319h-391zM674 752q-4 119 51 157q20 18 63 19q55 0 80 -25q31 -31 41 -69q2 -10 3 -30t-1 -52h-237z" />
<glyph unicode="&#xe9;" horiz-adv-x="1531" d="M131 492q12 -299 227 -431q164 -96 451 -96q246 0 403 68q193 86 222 246q12 74 -19 102q-35 27 -139 27h-234q-104 0 -137 -39q-16 -29 -33.5 -59.5t-52.5 -41.5q-55 -14 -100 19q-37 27 -43 84q-2 10 -2 47v104h473h94q37 0 49 2q92 12 136 62.5t44 154.5q0 66 -18 131 q-72 231 -324 320q-166 57 -362 57q-287 0 -449 -131q-207 -168 -186 -626zM539 1360h252l346 321h-389zM674 752q-4 119 51 157q20 18 63 19q55 0 80 -25q31 -31 41 -69q2 -10 3 -30t-1 -52h-237z" />
<glyph unicode="&#xea;" horiz-adv-x="1531" d="M131 492q12 -299 227 -431q164 -96 451 -96q246 0 403 68q193 86 222 246q12 74 -19 102q-35 27 -139 27h-234q-104 0 -137 -39q-16 -29 -33.5 -59.5t-52.5 -41.5q-55 -14 -100 19q-37 27 -43 84q-2 10 -2 47v104h473h94q37 0 49 2q92 12 136 62.5t44 154.5q0 66 -18 131 q-72 231 -324 320q-166 57 -362 57q-287 0 -449 -131q-207 -168 -186 -626zM401 1360h273l135 172l129 -172h276l-241 323h-326zM674 752q-4 119 51 157q20 18 63 19q55 0 80 -25q31 -31 41 -69q2 -10 3 -30t-1 -52h-237z" />
<glyph unicode="&#xeb;" horiz-adv-x="1531" d="M131 492q12 -299 227 -431q164 -96 451 -96q246 0 403 68q193 86 222 246q12 74 -19 102q-35 27 -139 27h-234q-104 0 -137 -39q-16 -29 -33.5 -59.5t-52.5 -41.5q-55 -14 -100 19q-37 27 -43 84q-2 10 -2 47v104h473h94q37 0 49 2q92 12 136 62.5t44 154.5q0 66 -18 131 q-72 231 -324 320q-166 57 -362 57q-287 0 -449 -131q-207 -168 -186 -626zM393 1360h326v272h-326v-272zM674 752q-4 119 51 157q20 18 63 19q55 0 80 -25q31 -31 41 -69q2 -10 3 -30t-1 -52h-237zM850 1360h326v272h-326v-272z" />
<glyph unicode="&#xec;" horiz-adv-x="768" d="M139 1679l348 -319h256l-213 319h-391zM150 164q0 -164 137 -164h254q150 0 149 172v868q0 172 -149 172h-254q-137 1 -137 -163v-885z" />
<glyph unicode="&#xed;" horiz-adv-x="768" d="M127 1360h254l344 321h-389zM150 164q0 -164 137 -164h254q150 0 149 172v868q0 172 -149 172h-254q-137 1 -137 -163v-885z" />
<glyph unicode="&#xee;" horiz-adv-x="768" d="M6 1360h273l135 172l129 -172h276l-241 323h-326zM141 164q0 -164 140 -164h251q152 0 152 172v868q0 172 -152 172h-251q-140 1 -140 -163v-885z" />
<glyph unicode="&#xef;" horiz-adv-x="768" d="M23 1360h325v272h-325v-272zM141 164q0 -164 140 -164h251q152 0 152 172v868q0 172 -152 172h-251q-140 1 -140 -163v-885zM479 1360h326v272h-326v-272z" />
<glyph unicode="&#xf1;" horiz-adv-x="1531" d="M168 164q0 -164 137 -164h254q152 0 152 172v578q0 55 28.5 86.5t67.5 31.5q86 0 86 -110v-594q0 -164 139 -164h254q150 0 150 172v578q0 78 -1 127t-3 69q-12 96 -58 162q-96 139 -299 139q-223 0 -364 -180q0 145 -152 145h-254q-137 0 -137 -163v-885zM403 1360h152 q4 53 27.5 76.5t62.5 23.5q27 0 64 -12q221 -70 276 -70q45 0 86 19q117 57 152 258h-150q-20 -49 -42.5 -68.5t-53.5 -19.5q-27 0 -94 28l-37 17q-98 45 -184 45q-63 0 -115 -29q-119 -70 -144 -268z" />
<glyph unicode="&#xf2;" horiz-adv-x="1492" d="M139 541q0 -295 187 -457q137 -119 440 -119q225 0 342 53q324 158 324 490v199q0 332 -324 489q-111 53 -334 53q-307 0 -448 -123q-186 -162 -187 -440v-145zM498 1679l348 -319h256l-213 319h-391zM682 449v317q0 49 30.5 76.5t73.5 27.5q41 0 72 -27.5t31 -76.5v-317 q0 -49 -31 -77t-72 -28q-43 0 -73.5 28t-30.5 77z" />
<glyph unicode="&#xf3;" horiz-adv-x="1492" d="M133 541q0 -295 186 -457q137 -119 441 -119q225 0 342 53q324 158 323 490v199q0 332 -323 489q-111 53 -334 53q-308 0 -449 -123q-186 -162 -186 -440v-145zM457 1360h254l344 321h-387zM676 449v317q0 49 30.5 76.5t73.5 27.5q41 0 72 -27.5t31 -76.5v-317 q0 -49 -31 -77t-72 -28q-43 0 -73.5 28t-30.5 77z" />
<glyph unicode="&#xf4;" horiz-adv-x="1492" d="M121 541q0 -297 184 -457q137 -117 440 -117q231 0 342 51q324 158 324 490v199q0 332 -324 489q-111 53 -331 53q-310 0 -451 -123q-184 -160 -184 -440v-145zM371 1360h272l135 172l129 -172h277l-242 323h-326zM662 449v317q0 49 31.5 76.5t72.5 27.5q43 0 73.5 -27.5 t30.5 -76.5v-317q0 -49 -30.5 -77t-71.5 -28q-43 0 -74.5 28t-31.5 77z" />
<glyph unicode="&#xf5;" horiz-adv-x="1492" d="M133 541q0 -295 186 -457q137 -119 441 -119q225 0 342 53q324 158 323 490v199q0 332 -323 489q-111 53 -334 53q-308 0 -449 -123q-186 -162 -186 -440v-145zM360 1360h152q4 53 27.5 76.5t60.5 23.5q27 0 64 -12q221 -70 278 -70q45 0 86 19q123 59 150 258h-148 q-25 -51 -45 -69.5t-51 -18.5q-27 0 -94 28l-37 17q-98 45 -187 45q-63 0 -114 -29q-121 -72 -142 -268zM676 449v317q0 49 30.5 76.5t73.5 27.5q41 0 72 -27.5t31 -76.5v-317q0 -49 -31 -77t-72 -28q-43 0 -73.5 28t-30.5 77z" />
<glyph unicode="&#xf6;" horiz-adv-x="1492" d="M133 541q0 -295 186 -457q137 -119 441 -119q225 0 342 53q324 158 323 490v199q0 332 -323 489q-111 53 -334 53q-308 0 -449 -123q-186 -162 -186 -440v-145zM393 1360h326v272h-326v-272zM676 449v317q0 49 30.5 76.5t73.5 27.5q41 0 72 -27.5t31 -76.5v-317 q0 -49 -31 -77t-72 -28q-43 0 -73.5 28t-30.5 77zM850 1360h326v272h-326v-272z" />
<glyph unicode="&#xf9;" horiz-adv-x="1474" d="M137 461q0 -78 1 -127t3 -70q12 -96 58 -162q94 -137 299 -137q227 0 366 170q0 -135 150 -135h254q137 0 137 162v887q0 164 -137 163h-254q-150 0 -150 -172v-579q0 -55 -29.5 -87t-66.5 -32q-88 0 -88 111v596q0 164 -137 163h-254q-152 0 -152 -172v-579zM477 1679 l346 -319h256l-211 319h-391z" />
<glyph unicode="&#xfa;" horiz-adv-x="1474" d="M131 461q0 -78 1 -127t3 -70q12 -96 58 -162q94 -137 299 -137q231 0 364 170q0 -135 152 -135h254q137 0 137 162v887q0 164 -137 163h-254q-152 0 -152 -172v-579q0 -55 -28.5 -87t-67.5 -32q-86 0 -86 111v596q0 164 -139 163h-252q-152 0 -152 -172v-579zM494 1360 h254l346 321h-389z" />
<glyph unicode="&#xfb;" horiz-adv-x="1474" d="M131 461q0 -78 1 -127t3 -70q12 -96 58 -162q94 -137 299 -137q231 0 364 170q0 -135 152 -135h254q137 0 137 162v887q0 164 -137 163h-254q-152 0 -152 -172v-579q0 -55 -28.5 -87t-67.5 -32q-86 0 -86 111v596q0 164 -139 163h-252q-152 0 -152 -172v-579zM379 1360 h270l135 172l129 -172h279l-244 323h-325z" />
<glyph unicode="&#xfc;" horiz-adv-x="1474" d="M137 461q0 -78 1 -127t3 -70q12 -96 58 -162q94 -137 299 -137q227 0 366 170q0 -135 150 -135h254q137 0 137 162v887q0 164 -137 163h-254q-150 0 -150 -172v-579q0 -55 -29.5 -87t-66.5 -32q-88 0 -88 111v596q0 164 -137 163h-254q-152 0 -152 -172v-579zM399 1360 h326v272h-326v-272zM856 1360h326v272h-326v-272z" />
<glyph unicode="&#xfd;" horiz-adv-x="1435" d="M61 1092q0 -31 25 -99l328 -854q63 -164 63 -202q0 -31 -12 -52q-25 -37 -73 -44t-95 -13q-82 -16 -109 -84q-10 -25 -10 -49q0 -45 31 -72q57 -47 190 -47h271q139 0 223 127q16 27 48 98.5t79 192.5l395 999q25 57 25 97q0 37 -19 67q-27 43 -86 53q-8 2 -108 2h-135 q-154 0 -209 -90q-23 -37 -58 -211l-75 -385l-76 385q-31 162 -58 203q-59 98 -206 98h-138q-49 0 -78.5 -1t-39.5 -3q-51 -8 -76 -51q-16 -29 -17 -65zM588 1356h254l346 321h-389z" />
<glyph unicode="&#xff;" horiz-adv-x="1435" d="M53 1090q0 -35 25 -97l330 -854q63 -160 63 -205q0 -29 -12 -49q-25 -37 -73 -44t-95 -13q-82 -16 -109 -84q-10 -25 -10 -49q0 -45 31 -72q53 -47 190 -47h269q141 0 225 127q16 27 48 98.5t79 192.5l393 999q25 63 25 99q0 37 -17 65q-25 43 -76 51q-10 2 -39.5 3 t-78.5 1h-138q-152 0 -206 -90q-23 -37 -58 -211l-76 -385l-75 385q-31 162 -58 203q-59 98 -209 98h-135q-135 0 -162 -20q-51 -33 -51 -102zM367 1360h325v272h-325v-272zM823 1360h326v272h-326v-272z" />
<glyph unicode="&#x152;" horiz-adv-x="2230" d="M131 612q0 -442 285 -592q141 -74 432 -73q231 0 397 53h676q100 0 145 10q74 20 117 86q23 39 23 105q0 63 -21 102q-43 76 -141 94q-35 6 -164 6h-303v236h264q129 0 164 6q86 14 127 84q25 43 25 96q0 45 -19 80q-43 78 -147 96q-35 6 -166 7h-248v221h303 q123 0 164 6q94 18 137 84q27 39 27 108q0 61 -21 97q-41 74 -116 92q-29 6 -136 6h-698q-160 51 -391 51q-289 0 -430 -74q-285 -150 -285 -591v-396zM725 436v746q0 66 38 104.5t89 38.5t88 -39t37 -108v-736q0 -70 -37 -108.5t-88 -38.5t-89 37.5t-38 103.5z" />
<glyph unicode="&#x153;" horiz-adv-x="2283" d="M133 541q0 -295 186 -457q137 -119 441 -119q225 0 342 53q12 6 24.5 12.5t22.5 12.5q162 -78 416 -78q246 0 403 68q193 86 221 246q12 74 -18 102q-35 27 -139 27h-234q-104 0 -137 -39q-16 -29 -33.5 -59.5t-52.5 -41.5q-55 -14 -100 19q-37 27 -43 84q-2 10 -2 47 v104h473h94q37 0 49 2q92 12 136 62.5t44 154.5q0 66 -18 131q-72 231 -324 320q-166 57 -362 57q-219 0 -369 -80q-20 14 -51 27q-111 53 -334 53q-307 0 -449 -123q-186 -162 -186 -440v-145zM676 449v317q0 49 30.5 76.5t73.5 27.5q41 0 72 -27.5t31 -76.5v-317 q0 -49 -31 -77t-72 -28q-43 0 -73.5 28t-30.5 77zM1430 752q-4 119 51 157q20 18 63 19q55 0 80 -25q31 -31 41 -69q2 -10 3 -30t-1 -52h-237z" />
<glyph unicode="&#x178;" horiz-adv-x="1591" d="M76 1524q0 -35 26.5 -89.5t53.5 -107.5l376 -760v-354q0 -213 187 -213h235q174 0 174 213v354l371 760q27 53 53.5 107.5t26.5 91.5q0 25 -8 43q-23 53 -168 53h-148q-139 0 -194 -16q-51 -14 -82 -68q-2 -4 -19.5 -44t-50.5 -118l-86 -200l-78 202q-68 178 -100 205 q-47 39 -246 39h-147q-145 0 -168 -53q-8 -18 -8 -45zM455 1745h325v272h-325v-272zM911 1745h326v272h-326v-272z" />
<glyph unicode="&#x2c6;" horiz-adv-x="1003" d="M123 1290h270l135 172l129 -172h279l-244 324h-325z" />
<glyph unicode="&#x2dc;" horiz-adv-x="1007" d="M135 1290h152q4 53 27.5 76t58.5 23q25 0 67 -13q217 -68 275 -67q47 0 88 18q123 59 149 258h-147q-25 -51 -45.5 -68.5t-48.5 -17.5q-29 0 -97 27l-36 14q-115 45 -191 45q-63 0 -108 -26q-119 -68 -144 -269z" />
<glyph unicode="&#x2000;" horiz-adv-x="1190" />
<glyph unicode="&#x2001;" horiz-adv-x="2380" />
<glyph unicode="&#x2002;" horiz-adv-x="1190" />
<glyph unicode="&#x2003;" horiz-adv-x="2380" />
<glyph unicode="&#x2004;" horiz-adv-x="793" />
<glyph unicode="&#x2005;" horiz-adv-x="595" />
<glyph unicode="&#x2006;" horiz-adv-x="396" />
<glyph unicode="&#x2007;" horiz-adv-x="396" />
<glyph unicode="&#x2008;" horiz-adv-x="297" />
<glyph unicode="&#x2009;" horiz-adv-x="476" />
<glyph unicode="&#x200a;" horiz-adv-x="132" />
<glyph unicode="&#x2010;" horiz-adv-x="993" d="M123 596q0 -70 27 -109q39 -53 104 -75q49 -14 176 -15h180q63 0 101.5 1t52.5 3q88 16 133 86q27 39 27 109q0 66 -23 106q-43 72 -135 95q-37 6 -156 6h-180q-109 0 -141 -6q-113 -23 -146 -95q-20 -41 -20 -106z" />
<glyph unicode="&#x2011;" horiz-adv-x="993" d="M123 596q0 -70 27 -109q39 -53 104 -75q49 -14 176 -15h180q63 0 101.5 1t52.5 3q88 16 133 86q27 39 27 109q0 66 -23 106q-43 72 -135 95q-37 6 -156 6h-180q-109 0 -141 -6q-113 -23 -146 -95q-20 -41 -20 -106z" />
<glyph unicode="&#x2012;" horiz-adv-x="993" d="M123 596q0 -70 27 -109q39 -53 104 -75q49 -14 176 -15h180q63 0 101.5 1t52.5 3q88 16 133 86q27 39 27 109q0 66 -23 106q-43 72 -135 95q-37 6 -156 6h-180q-109 0 -141 -6q-113 -23 -146 -95q-20 -41 -20 -106z" />
<glyph unicode="&#x2013;" horiz-adv-x="1062" d="M168 410h784v274h-784v-274z" />
<glyph unicode="&#x2014;" horiz-adv-x="1486" d="M236 410h1097v274h-1097v-274z" />
<glyph unicode="&#x2018;" horiz-adv-x="733" d="M125 1235q0 -74 27 -135q6 -16 25 -55.5t52 -98.5l115 -213h295l-127 371q158 12 158 186v160q0 172 -164 172h-209q-172 0 -172 -149v-238z" />
<glyph unicode="&#x2019;" horiz-adv-x="733" d="M127 1290q0 -176 158 -186l-127 -371h295l112 213q47 92 75 164t32 125v238q0 150 -174 149h-207q-164 0 -164 -172v-160z" />
<glyph unicode="&#x201a;" horiz-adv-x="733" d="M127 143q0 -174 158 -184l-127 -371h295l112 213q47 92 75 163t32 124v238q0 150 -174 149h-207q-164 0 -164 -172v-160z" />
<glyph unicode="&#x201c;" horiz-adv-x="1302" d="M121 1272q0 -63 24 -121q4 -10 21.5 -44t48.5 -93l102 -195h267l-117 336q143 8 143 168v141q0 158 -147 158h-189q-154 0 -153 -135v-215zM752 1272q0 -63 24 -121q4 -10 21.5 -44t48.5 -93l102 -195h266l-114 336q141 8 141 168v141q0 158 -145 158h-189 q-156 0 -155 -135v-215z" />
<glyph unicode="&#x201d;" horiz-adv-x="1302" d="M127 1323q0 -160 141 -168l-114 -336h266l102 195q31 59 48.5 93t21.5 44q25 57 24 121v215q0 135 -155 135h-189q-145 0 -145 -158v-141zM758 1323q0 -160 143 -168l-117 -336h267l104 195q29 53 46.5 87t23.5 50q23 61 22 121v215q0 135 -153 135h-189 q-147 0 -147 -158v-141z" />
<glyph unicode="&#x201e;" horiz-adv-x="1302" d="M127 176q0 -160 141 -168l-114 -334h266l102 195q31 59 48.5 93t21.5 42q25 57 24 121v215q0 135 -155 135h-189q-145 0 -145 -158v-141zM758 176q0 -160 143 -168l-117 -334h267l104 195q29 53 46.5 87t23.5 48q23 61 22 121v215q0 135 -153 135h-189q-147 0 -147 -158 v-141z" />
<glyph unicode="&#x2022;" horiz-adv-x="733" d="M106 885q0 -193 187 -193h192q188 0 189 197v131q0 195 -180 194h-207q-106 0 -152 -81q-29 -53 -29 -117v-131z" />
<glyph unicode="&#x2026;" horiz-adv-x="2199" d="M129 195q0 -195 174 -195h217q154 0 154 174v176q0 176 -174 176h-207q-164 0 -164 -172v-159zM862 195q0 -195 174 -195h217q154 0 154 174v176q0 176 -174 176h-207q-164 0 -164 -172v-159zM1595 195q0 -195 174 -195h218q154 0 153 174v176q0 176 -174 176h-207 q-164 0 -164 -172v-159z" />
<glyph unicode="&#x202f;" horiz-adv-x="476" />
<glyph unicode="&#x205f;" horiz-adv-x="595" />
<glyph unicode="&#x2122;" horiz-adv-x="2027" d="M111 1329h264v-731h180v731h264v154h-708v-154zM950 598h180v627l246 -627h117l246 627v-627h180v885h-248l-233 -604l-238 604h-250v-885z" />
<glyph unicode="&#x25fc;" horiz-adv-x="1208" d="M0 0v1208h1208v-1208h-1208z" />
</font>
</defs>
</svg>
