<?xml version="1.0" standalone="no"?>
<!DOCTYPE svg PUBLIC "-//W3C//DTD SVG 1.1//EN" "http://www.w3.org/Graphics/SVG/1.1/DTD/svg11.dtd" >
<svg xmlns="http://www.w3.org/2000/svg">
<metadata></metadata>
<defs>
<font id="tin_doghouseregular" horiz-adv-x="1200" >
<font-face units-per-em="2048" ascent="1638" descent="-410" />
<missing-glyph horiz-adv-x="400" />
<glyph horiz-adv-x="2048" />
<glyph horiz-adv-x="2048" />
<glyph unicode="&#xd;" horiz-adv-x="390" />
<glyph unicode=" "  horiz-adv-x="400" />
<glyph unicode="&#x09;" horiz-adv-x="400" />
<glyph unicode="&#xa0;" horiz-adv-x="400" />
<glyph unicode="!" horiz-adv-x="450" d="M100 0v250h250v-250h-250zM100 1500h250l-50 -1050h-150z" />
<glyph unicode="&#x22;" horiz-adv-x="900" d="M100 1640h250l-50 -540h-150zM550 1640h250l-50 -540h-150z" />
<glyph unicode="#" horiz-adv-x="1340" d="M100 35l100 365h-75v200h125l80 300h-80v200h135l115 430l240 -65l-100 -365h245l115 430l240 -65l-100 -365h85v-200h-135l-80 -300h90v-200h-145l-115 -430l-240 65l100 365h-245l-115 -430zM510 600h240l80 300h-240z" />
<glyph unicode="$" horiz-adv-x="1215" d="M77 369l204 95l44 -84q55 -145 270 -155q270 0 270 145q0 180 -330 297q-435 143 -435 433q0 375 495 375q370 0 445 -240l48 -104l-204 -95l-44 84q-45 155 -245 155q-245 0 -245 -175q0 -110 270 -197q495 -183 495 -473q0 -405 -520 -405q-355 0 -470 230zM470 0h250 v-200h-250v200zM470 1500v200h250v-200h-250z" />
<glyph unicode="%" horiz-adv-x="1550" d="M100 146l1160 1379l190 -161l-1160 -1379zM100 1187.5q0 337.5 325 337.5t325 -337.5t-325 -337.5t-325 337.5zM325 1187.5q0 -137.5 100 -137.5t100 137.5t-100 137.5t-100 -137.5zM800 312.5q0 337.5 325 337.5t325 -337.5t-325 -337.5t-325 337.5zM1025 312.5 q0 -137.5 100 -137.5t100 137.5t-100 137.5t-100 -137.5z" />
<glyph unicode="&#x26;" horiz-adv-x="1500" d="M100 400q10 270 314 488q-189 182 -189 337q0 300 362.5 300t362.5 -300q0 -205 -192 -367l269 -312l183 219l190 -160l-212 -252l242 -288l-190 -160l-215 255q-130 -185 -465 -185q-460 0 -460 425zM350 400q0 -225 210 -225q180 0 305 175l-285 345 q-220 -155 -230 -295zM475 1225q5 -65 120 -180q125 105 115 180q5 100 -115 100t-120 -100z" />
<glyph unicode="'" horiz-adv-x="558" d="M98 1177l227 492l216 -125l-313 -442z" />
<glyph unicode="(" horiz-adv-x="680" d="M100 750q0 775 375 910l155 -195q-280 -140 -280 -715t280 -715l-155 -195q-375 135 -375 910z" />
<glyph unicode=")" horiz-adv-x="680" d="M50 35q280 140 280 715t-280 715l155 195q375 -135 375 -910t-375 -910z" />
<glyph unicode="*" horiz-adv-x="1195" d="M101 1226l150 260l297 -286l-100 400h300l-100 -400l297 286l150 -260l-397 -113l397 -113l-150 -260l-297 287l100 -400h-300l100 400l-296 -287l-150 260l396 113z" />
<glyph unicode="+" horiz-adv-x="1000" d="M100 650v200h300v300h200v-300h300v-200h-300v-300h-200v300h-300z" />
<glyph unicode="," horiz-adv-x="450" d="M-145 -325l278 581l217 -125l-365 -531z" />
<glyph unicode="-" horiz-adv-x="1000" d="M100 650v200h800v-200h-800z" />
<glyph unicode="&#xad;" horiz-adv-x="1000" d="M100 650v200h800v-200h-800z" />
<glyph unicode="." horiz-adv-x="450" d="M100 0v250h250v-250h-250z" />
<glyph unicode="/" horiz-adv-x="950" d="M2 22l719 1541l227 -105l-719 -1541z" />
<glyph unicode="0" d="M100 750q0 775 500 775t500 -775t-500 -775t-500 775zM350 750q0 -575 250 -575t250 575t-250 575t-250 -575z" />
<glyph unicode="1" d="M305 1255l320 245h100v-1300h100v-200h-450v200h100v965l-95 -40z" />
<glyph unicode="2" d="M100 0v150q0 480 495 663q255 87 255 287q0 225 -230 225q-200 0 -255 -190l-19 -54l-214 70l18 64q100 310 470 310q480 0 480 -425q0 -380 -420 -523q-330 -117 -330 -377h750v-200h-1000z" />
<glyph unicode="3" d="M115 335l230 120l40 -100q85 -155 210 -155q250 0 250 250t-250 250h-200v200h200q200 0 200 200t-200 200q-140 5 -215 -140l-25 -60l-220 85l45 100q125 215 415 215q450 0 450 -350q-5 -225 -195 -320q245 -95 245 -380q0 -450 -500 -450q-290 0 -415 220z" />
<glyph unicode="4" d="M100 355l380 817l226 -106l-286 -616h330v1000l250 50v-1050h100v-200h-100v-250h-250v250h-545z" />
<glyph unicode="5" d="M96 262l202 110l22 -42q55 -145 280 -155q250 0 250 325t-250 325q-195 0 -240 -155l-22 -42l-237 40l149 832h800v-200h-585l-55 -335q15 65 190 60q500 0 500 -525t-500 -525q-365 0 -480 230z" />
<glyph unicode="6" d="M100 500q0 585 196 760t489 245l170 30l40 -210l-185 -35q-460 -105 -460 -490q65 210 275 225q475 0 475 -525t-500 -525t-500 525zM350 505q0 -320 250 -320t250 320t-250 320t-250 -320z" />
<glyph unicode="7" d="M100 70l650 1230h-650l50 200h950v-85l-780 -1445z" />
<glyph unicode="8" d="M100 450q0 285 240 380q-185 95 -190 320q0 375 450 375t450 -375q-5 -225 -190 -320q240 -95 240 -380q0 -475 -500 -475t-500 475zM350 437.5q0 -262.5 250 -262.5t250 262.5t-250 262.5t-250 -262.5zM400 1112.5q0 -212.5 200 -212.5t200 212.5t-200 212.5 t-200 -212.5z" />
<glyph unicode="9" d="M100 1010q0 525 500 525t500 -525q0 -585 -196 -760t-489 -245l-170 -30l-40 210l185 35q460 105 460 490q-65 -210 -275 -225q-475 0 -475 525zM350 1005q0 -320 250 -320t250 320t-250 320t-250 -320z" />
<glyph unicode=":" horiz-adv-x="450" d="M100 0v250h250v-250h-250zM100 750v250h250v-250h-250z" />
<glyph unicode=";" horiz-adv-x="450" d="M-145 -325l278 581l217 -125l-365 -531zM100 750v250h250v-250h-250z" />
<glyph unicode="&#x3c;" horiz-adv-x="1030" d="M50 750l737 517l143 -205l-445 -312l445 -313l-143 -204z" />
<glyph unicode="=" horiz-adv-x="1000" d="M100 450v200h800v-200h-800zM100 850v200h800v-200h-800z" />
<glyph unicode="&#x3e;" horiz-adv-x="1023" d="M93 438l445 312l-445 313l143 204l737 -517l-737 -517z" />
<glyph unicode="?" horiz-adv-x="1175" d="M107 1151l214 -70l29 89q45 155 245 155q230 0 230 -225q0 -200 -145 -232q-305 -88 -305 -378v-40h250q0 160 140 182q310 88 310 468q0 425 -480 425q-370 0 -445 -240zM375 0v250h250v-250h-250z" />
<glyph unicode="@" horiz-adv-x="1700" d="M100 700q0 700 750 700t750 -600t-300 -600t-300 250q0 -175 -275 -175t-275 400t290 442.5t510 -142.5v-525q0 -50 50 -50t50 400t-500 400t-500 -500t325 -500t325 100v-300h-450q-450 0 -450 700zM700 687.5q0 -212.5 150 -212.5t150 225v125q-30 100 -165 87.5 t-135 -225z" />
<glyph unicode="A" horiz-adv-x="1300" d="M16 69l584 1456h100l584 -1456l-232 -94l-137 325h-530l-135 -325zM470 500h360l-180 480z" />
<glyph unicode="B" horiz-adv-x="1150" d="M100 0v1500h450q450 0 450 -350q-5 -225 -190 -320q240 -95 240 -380q0 -450 -500 -450h-450zM350 200h200q250 0 250 250t-250 250h-200v-500zM350 900h200q200 0 200 200t-200 200h-200v-400z" />
<glyph unicode="C" horiz-adv-x="1240" d="M100 750q0 775 550 775q365 0 440 -230l48 -114l-204 -95l-44 84q-45 150 -240 155q-300 0 -300 -575t300 -575q185 10 240 155l44 84l204 -95l-48 -114q-115 -230 -440 -230q-550 0 -550 775z" />
<glyph unicode="D" d="M100 0v1500h500q500 0 500 -750t-500 -750h-500zM350 200h250q250 0 250 550t-250 550h-250v-1100z" />
<glyph unicode="E" horiz-adv-x="1100" d="M100 0v1500h900l-50 -200h-600v-450h450v-200h-450v-450h600l50 -200h-900z" />
<glyph unicode="F" horiz-adv-x="1100" d="M100 0v1500h900l-50 -200h-600v-450h450v-200h-450v-650h-250z" />
<glyph unicode="G" horiz-adv-x="1240" d="M100 750q0 775 550 775q325 0 445 -245l43 -99l-204 -95l-34 74q-65 155 -250 165q-300 0 -300 -575t300 -575q34 -2 65 -2q109 0 175 27v400h-190v200h440v-775q-241 -50 -465 -50h-25q-550 0 -550 775z" />
<glyph unicode="H" d="M100 0v1500h250v-650h500v650h250v-1500h-250v650h-500v-650h-250z" />
<glyph unicode="I" horiz-adv-x="450" d="M100 0v1500h250v-1500h-250z" />
<glyph unicode="J" horiz-adv-x="450" d="M-162 -163q262 153 262 413v1250h250v-1300q0 -300 -412 -537z" />
<glyph unicode="K" d="M100 0v1500h250v-585l609 610l142 -141l-566 -566l620 -740l-198 -167l-607 729v-640h-250z" />
<glyph unicode="L" horiz-adv-x="1100" d="M100 0v1500h250v-1300h600l50 -200h-900z" />
<glyph unicode="M" horiz-adv-x="1710" d="M25 20l270 1505h110l450 -960l460 960h110l260 -1505l-250 -45l-155 890l-425 -890l-425 890l-155 -890z" />
<glyph unicode="N" d="M100 0v1550h100l650 -1000v950h250v-1550h-100l-650 1000v-950h-250z" />
<glyph unicode="O" horiz-adv-x="1300" d="M100 750q0 775 550 775t550 -775t-550 -775t-550 775zM350 750q0 -575 300 -575t300 575t-300 575t-300 -575z" />
<glyph unicode="P" horiz-adv-x="1150" d="M100 0v1500h450q500 0 500 -500t-500 -500h-200v-500h-250zM350 700h200q250 0 250 300t-250 300h-200v-600z" />
<glyph unicode="Q" horiz-adv-x="1300" d="M100 750q0 775 550 775t550 -775v-23q0 -403 -175 -602l150 -213l-205 -144l-155 227q-80 -20 -165 -20q-550 0 -550 775zM350 750q0 -575 300 -575l30 10l-169 238l205 144l164 -232q70 130 70 415q0 575 -300 575t-300 -575z" />
<glyph unicode="R" horiz-adv-x="1098" d="M100 0v1500h450q450 0 450 -350v-20q0 -352 -340 -430l429 -600l-213 -149l-526 749v-700h-250zM350 900h200q200 0 200 200t-200 200h-200v-400z" />
<glyph unicode="S" horiz-adv-x="1190" d="M77 319l204 95l44 -84q55 -145 270 -155q270 0 270 195q0 180 -330 297q-435 143 -435 433q0 425 495 425q370 0 445 -240l48 -104l-204 -95l-44 84q-45 155 -245 155q-245 0 -245 -225q0 -110 270 -197q495 -183 495 -473q0 -455 -520 -455q-355 0 -470 230z" />
<glyph unicode="T" horiz-adv-x="1150" d="M50 1500h1050l-50 -200h-350v-1300h-250v1300h-350z" />
<glyph unicode="U" d="M100 500v1000h250v-1000q0 -325 250 -325t250 325v1000h250v-1000q0 -525 -500 -525t-500 525z" />
<glyph unicode="V" horiz-adv-x="1300" d="M16 1431l232 94l402 -1005l400 1005l234 -94l-584 -1456h-100z" />
<glyph unicode="W" horiz-adv-x="1650" d="M0 1466l242 59l248 -915l284 719h101l285 -719l248 915l242 -59l-400 -1491h-100l-325 810l-325 -810h-100z" />
<glyph unicode="X" horiz-adv-x="1240" d="M25 118l445 632l-445 632l205 143l390 -555l385 555l210 -143l-440 -632l440 -632l-210 -143l-385 555l-390 -555z" />
<glyph unicode="Y" horiz-adv-x="1210" d="M25 1400l216 125l364 -630l364 630l216 -125l-455 -790v-610h-250v610z" />
<glyph unicode="Z" d="M100 0v70l650 1230h-600l-50 200h1000v-85l-650 -1215h600l50 -200h-1000z" />
<glyph unicode="[" horiz-adv-x="700" d="M100 -250v2000h500v-200h-250v-1600h250v-200h-500z" />
<glyph unicode="\" horiz-adv-x="945" d="M-3 1458l227 105l719 -1541l-227 -105z" />
<glyph unicode="]" horiz-adv-x="700" d="M100 -50h250v1600h-250v200h500v-2000h-500v200z" />
<glyph unicode="^" horiz-adv-x="965" d="M102 1265l381 384l381 -384l-96 -115l-285 200l-285 -200z" />
<glyph unicode="_" horiz-adv-x="1000" d="M-100 -100h1200v-200h-1200v200z" />
<glyph unicode="`" horiz-adv-x="645" d="M100 1544l216 125l227 -492l-130 -75z" />
<glyph unicode="a" horiz-adv-x="1030" d="M50 310q0 335 471 355q94 0 174 -20q-28 181 -152 181q-6 0 -13 -1h-13q-162 0 -267 -125l-140 175q150 150 420 151q400 0 400 -526v-500h-250v108q-35 -113 -280 -133q-350 0 -350 335zM280 330q0 -155 208 -157q2 0 3 -1q201 0 201 270v8l-131 15q-32 2 -61 2 q-220 0 -220 -137z" />
<glyph unicode="b" horiz-adv-x="1100" d="M100 100v1425h250v-675q0 175 325 175t325 -500q0 -501 -340 -543q-71 -9 -137 -8q-249 0 -423 126zM350 275q27 -89 176 -88q19 1 39 1q185 12 185 324.5t-200 312.5t-200 -225v-325z" />
<glyph unicode="c" horiz-adv-x="1040" d="M50 500q0 525 500 525q315 0 390 -230l24 -57l-202 -110l-22 42q-45 155 -190 155q-250 0 -250 -325t250 -325q135 10 190 155l22 42l202 -110l-24 -57q-115 -230 -390 -230q-500 0 -500 525z" />
<glyph unicode="d" horiz-adv-x="1100" d="M100 475q12 338 127 440.5t258 110.5q18 1 35 2q123 0 230 -53v550h250v-1525h-250v150q0 -175 -325 -175t-325 500zM350 487.5q0 -312.5 200 -312.5t200 225v325q-27 89 -176 89q-19 0 -39 -2q-185 -12 -185 -324.5z" />
<glyph unicode="e" horiz-adv-x="1040" d="M50 500q0 525 470 525t470 -525v-100h-685q58 -225 230 -225h15h11q163 0 274 150l150 -150q-160 -200 -435 -200q-500 0 -500 525zM305 600h435q0 225 -197.5 225t-237.5 -225z" />
<glyph unicode="f" horiz-adv-x="800" d="M50 1000h200v240q0 282 233 282q36 0 77 -7l190 -34l-37 -197q-46 8 -82 8q-131 0 -131 -102v-190h250l-50 -200h-200v-800h-250v800h-150z" />
<glyph unicode="g" horiz-adv-x="1100" d="M100 475q0 500 340 543q64 7 123 7q258 0 437 -150v-875q0 -400 -450 -400q-150 0 -272 60l-152 70l85 181l176 -80q77 -31 163 -31q200 0 200 200v150q0 -175 -325 -175t-325 500zM350 487.5q0 -312.5 200 -312.5t200 225v325q-27 89 -176 89q-18 0 -39 -2 q-185 -12 -185 -324.5z" />
<glyph unicode="h" horiz-adv-x="1100" d="M100 0v1525h250v-675q0 175 325 175t325 -425v-600h-250v600q0 225 -200 225t-200 -225v-600h-250z" />
<glyph unicode="i" horiz-adv-x="450" d="M100 0v1000h250v-1000h-250zM100 1250v250h250v-250h-250z" />
<glyph unicode="j" horiz-adv-x="450" d="M-162 -223q262 153 262 413v810h250v-860q0 -300 -412 -537zM100 1250v250h250v-250h-250z" />
<glyph unicode="k" horiz-adv-x="1025" d="M102 0v1525h250v-928l431 432l142 -141l-338 -338l396 -474l-198 -166l-433 517v-427h-250z" />
<glyph unicode="l" horiz-adv-x="450" d="M100 0v1525h250v-1525h-250z" />
<glyph unicode="m" horiz-adv-x="1750" d="M100 0v1000h250v-150q0 175 325 175q230 -5 300 -205q25 205 350 205t325 -425v-600h-250v600q0 225 -200 225t-200 -225v-600h-250v600q0 225 -200 225t-200 -225v-600h-250z" />
<glyph unicode="n" horiz-adv-x="1100" d="M100 0v1000h250v-150q0 175 325 175t325 -425v-600h-250v600q0 225 -200 225t-200 -225v-600h-250z" />
<glyph unicode="o" horiz-adv-x="1100" d="M50 500q0 525 500 525t500 -525t-500 -525t-500 525zM300 500q0 -325 250 -325t250 325t-250 325t-250 -325z" />
<glyph unicode="p" horiz-adv-x="1100" d="M100 -400v1400h250v-150q0 175 325 175t325 -500q-12 -338 -127 -440.5t-258 -110.5q-18 -2 -35 -2q-123 0 -230 53v-425h-250zM350 275q27 -89 176 -89q18 0 39 2q185 12 185 324.5t-200 312.5t-200 -225v-325z" />
<glyph unicode="q" horiz-adv-x="1100" d="M100 475q0 500 340 543q64 7 123 7q258 0 437 -150v-1075h100v-200h-350v550q0 -175 -325 -175t-325 500zM350 487.5q0 -312.5 200 -312.5t200 225v325q-27 89 -176 89q-18 0 -39 -2q-185 -12 -185 -324.5z" />
<glyph unicode="r" horiz-adv-x="800" d="M100 0v1000h250v-150q60 179 217 179h2q159 -1 255 -67l-84 -187q-45 40 -190 50q-200 0 -200 -225v-600h-250z" />
<glyph unicode="s" horiz-adv-x="1020" d="M75 205l200 125q55 -145 245 -155q195 0 195 110t-255 132q-335 58 -335 283q0 325 395 325q320 0 395 -240l-200 -115q-45 155 -195 155q-145 0 -145 -100t170 -122q420 -33 420 -303q0 -325 -445 -325q-330 0 -445 230z" />
<glyph unicode="t" horiz-adv-x="800" d="M50 1000h200v375l250 50v-425h250l-50 -200h-200v-500q0 -102 131 -102q36 0 82 8l37 -197l-190 -34q-41 -7 -77 -7q-233 0 -233 282v550h-150z" />
<glyph unicode="u" horiz-adv-x="1100" d="M100 400v600h250v-600q0 -225 200 -225t200 225v600h250v-1000h-250v150q0 -175 -325 -175t-325 425z" />
<glyph unicode="v" horiz-adv-x="1010" d="M27 922l228 103l257 -536l251 536l225 -107l-429 -918h-101z" />
<glyph unicode="w" horiz-adv-x="1510" d="M17 922l228 103l257 -536l251 536l255 -536l251 536l225 -107l-429 -918h-100l-200 435l-206 -435h-101z" />
<glyph unicode="x" horiz-adv-x="930" d="M50 121l255 379l-255 379l210 144l210 -315l210 315l200 -144l-270 -379l270 -379l-200 -146l-210 293l-210 -293z" />
<glyph unicode="y" horiz-adv-x="1025" d="M42 922l228 103l257 -536l251 536l225 -107l-621 -1328l-227 100l237 496z" />
<glyph unicode="z" horiz-adv-x="975" d="M100 0v70l435 730h-360l-50 200h750v-85l-410 -715h385l50 -200h-800z" />
<glyph unicode="{" horiz-adv-x="900" d="M100 650v200h100q100 0 100 100v590q0 325 310 275l190 -34l-37 -197q-213 36 -213 -94v-540q0 -200 -160 -200q160 0 160 -200v-545q0 -130 213 -94l37 -197l-190 -34q-310 -50 -310 275v595q0 100 -100 100h-100z" />
<glyph unicode="|" horiz-adv-x="350" d="M100 -150v1800h150v-1800h-150z" />
<glyph unicode="}" horiz-adv-x="900" d="M100 -281l37 197q213 -36 213 94v540q0 200 160 200q-160 0 -160 200v545q0 130 -213 94l-37 197l190 34q310 50 310 -275v-595q0 -100 100 -100h100v-200h-100q-100 0 -100 -100v-590q0 -325 -310 -275z" />
<glyph unicode="~" horiz-adv-x="1110" d="M102 550q103 282 385 180l188 -69q141 -51 192 90l141 -51q-103 -282 -385 -180l-188 69q-141 51 -192 -90z" />
<glyph unicode="&#xa1;" horiz-adv-x="450" d="M100 0l50 1050h150l50 -1050h-250zM100 1250v250h250v-250h-250z" />
<glyph unicode="&#xa2;" horiz-adv-x="1115" d="M100 750q0 525 500 525q315 0 390 -230l24 -57l-202 -110l-22 42q-45 155 -190 155q-250 0 -250 -325t250 -325q135 10 190 155l22 42l202 -110l-24 -57q-115 -230 -390 -230q-500 0 -500 525zM450 -75v250h250v-250h-250zM450 1325v250h250v-250h-250z" />
<glyph unicode="&#xa3;" horiz-adv-x="1300" d="M83 84q78 121 167 161v405h-100l-50 200h150v250q0 425 450 425q350 0 405 -235l47 -178l-214 -55l-33 128q-25 140 -205 140q-200 0 -200 -225v-250h300l-50 -200h-250v-400l390 -70q105 -25 193 146l164 -115q-127 -281 -364 -231l-481 78q-87 22 -155 -89z" />
<glyph unicode="&#xa4;" horiz-adv-x="1290" d="M100 500v200h50v100h-50v200h70q70 520 530 525q365 0 440 -230l48 -114l-204 -95l-44 84q-45 150 -240 155q-250 -20 -280 -325h355l-50 -200h-325v-100h300l-50 -200h-225q25 -305 275 -325q185 10 240 155l44 84l204 -95l-48 -114q-115 -230 -440 -230 q-460 5 -530 525h-70z" />
<glyph unicode="&#xa5;" horiz-adv-x="1209" d="M24 1400l216 125l364 -630l364 630l216 -125l-455 -790v-160h200v-200h-200v-250h-250v250h-200v200h200v160z" />
<glyph unicode="&#xa6;" horiz-adv-x="350" d="M100 -150v800h150v-800h-150zM100 850v800h150v-800h-150z" />
<glyph unicode="&#xa7;" horiz-adv-x="420" />
<glyph unicode="&#xa8;" horiz-adv-x="1550" d="M100 1550v250h250v-250h-250zM750 1550v250h250v-250h-250z" />
<glyph unicode="&#xa9;" horiz-adv-x="1700" d="M159 466.5q-119 288.5 0 577t407.5 407.5t577 0t407.5 -407.5t0 -577t-407.5 -407.5t-577 0t-407.5 407.5zM255.5 506.5q102.5 -248.5 351 -351t497 0t351 351t0 497t-351 351t-497 0t-351 -351t0 -497zM502 750q0 517 363 517q241 0 290 -153l32 -76l-135 -64l-29 56 q-29 100 -158 104q-198 0 -198 -384t198 -384q122 7 158 104l29 56l135 -64l-32 -76q-75 -153 -290 -153q-363 0 -363 517z" />
<glyph unicode="&#xaa;" horiz-adv-x="700" d="M12 350v100h600v-100h-600zM37 705q0 167 235 177q48 0 88 -10q-16 96 -83 90q-85 3 -140 -62l-70 88q75 74 210 74q200 0 200 -262v-250h-125v54q-18 -56 -140 -66q-175 0 -175 167zM152 715q0 -77 104 -78.5t102 138.5l-66 7q-140 10 -140 -67z" />
<glyph unicode="&#xab;" horiz-adv-x="1025" d="M100 750l241 323l132 -95l-152 -228l152 -227l-132 -95zM550 750l241 323l132 -95l-152 -228l152 -227l-132 -95z" />
<glyph unicode="&#xac;" horiz-adv-x="1000" d="M100 450v400h800v-200h-600v-200h-200z" />
<glyph unicode="&#xae;" horiz-adv-x="1700" d="M159 466.5q-119 288.5 0 577t407.5 407.5t577 0t407.5 -407.5t0 -577t-407.5 -407.5t-577 0t-407.5 407.5zM255.5 506.5q102.5 -248.5 351 -351t497 0t351 351t0 497t-351 351t-497 0t-351 -351t0 -497zM550 241v1001h300q300 0 300 -233q7 -247 -227 -301l286 -400 l-142 -99l-350 499v-467h-167zM717 842h133q133 0 133 133.5t-133 133.5h-133v-267z" />
<glyph unicode="&#xaf;" d="M100 1550v200h1000v-200h-1000z" />
<glyph unicode="&#xb0;" horiz-adv-x="625" d="M100 1400q0 200 212.5 200t212.5 -200t-212.5 -200t-212.5 200zM225 1400q0 -100 87.5 -100t87.5 100t-87.5 100t-87.5 -100z" />
<glyph unicode="&#xb1;" horiz-adv-x="1000" d="M100 200v200h800v-200h-800zM100 800v200h300v300h200v-300h300v-200h-300v-300h-200v300h-300z" />
<glyph unicode="&#xb2;" horiz-adv-x="767" d="M89 467v100q0 320 330 442q170 58 170 192q0 150 -153 150q-134 0 -171 -127l-12 -36l-143 47l12 42q67 207 314 207q320 0 320 -283q0 -254 -280 -349q-221 -78 -221 -252h501v-133h-667z" />
<glyph unicode="&#xb3;" horiz-adv-x="767" d="M92 690l153 80l27 -66q56 -104 140 -104q167 0 167 167t-167 167h-134v133h134q133 0 133 133.5t-133 133.5q-94 3 -144 -93l-16 -40l-147 56l30 67q83 143 277 143q300 0 300 -233q-3 -150 -130 -213q163 -64 163 -254q0 -300 -333 -300q-194 0 -277 147z" />
<glyph unicode="&#xb4;" horiz-adv-x="1550" d="M100 1687l468 273l105 -226l-510 -183z" />
<glyph unicode="&#xb6;" horiz-adv-x="1300" d="M100 1000q0 500 500 500h600v-1500h-250v1300h-50v-1300h-250v500h-50q-500 0 -500 500z" />
<glyph unicode="&#xb7;" horiz-adv-x="450" d="M100 625v250h250v-250h-250z" />
<glyph unicode="&#xb8;" horiz-adv-x="1550" d="M100 -280l55 50q150 -75 252.5 -72.5t132.5 52.5t-2.5 70t-127.5 -10l-25 85q160 50 252.5 17.5t92.5 -102.5t-70 -122.5t-222.5 -60t-337.5 92.5z" />
<glyph unicode="&#xb9;" horiz-adv-x="400" d="M104 1304l214 163h67v-867h66v-133h-300v133h67v644l-64 -27z" />
<glyph unicode="&#xba;" horiz-adv-x="700" d="M12 350v100h600v-100h-600zM37 800q0 262 250 262t250 -262t-250 -262t-250 262zM162 800q0 -162 125 -162t125 162t-125 162t-125 -162z" />
<glyph unicode="&#xbb;" horiz-adv-x="1025" d="M100 522l152 228l-152 227l132 95l241 -322l-241 -323zM550 522l152 228l-152 227l132 95l241 -322l-241 -323z" />
<glyph unicode="&#xbc;" horiz-adv-x="800" d="M84 33l228 490l136 -63l-172 -370h198v600l150 30v-630h60v-120h-60v-150h-150v150h-327zM105 570v120h600v-120h-600zM207 1293l192 147h60v-780h60v-120h-270v120h60v579l-57 -24z" />
<glyph unicode="&#xbd;" horiz-adv-x="800" d="M84 -90q0 288 297 398q153 52 153 172q0 135 -138 135q-120 0 -153 -114l-11 -32l-129 42l11 38q60 186 282 186q288 0 288 -255q0 -228 -252 -314q-198 -70 -198 -226h450v-120h-600v90zM105 570v120h600v-120h-600zM207 1293l192 147h60v-780h60v-120h-270v120h60v579 l-57 -24z" />
<glyph unicode="&#xbe;" horiz-adv-x="800" d="M84 33l228 490l136 -63l-172 -370h198v600l150 30v-630h60v-120h-60v-150h-150v150h-327zM93 741l138 72l24 -60q51 -93 126 -93q150 0 150 150t-150 150h-120v120h120q120 0 120 120t-120 120q-84 3 -129 -84l-15 -36l-132 51l27 60q75 129 249 129q270 0 270 -210 q-3 -135 -117 -192q147 -57 147 -228q0 -270 -300 -270q-174 0 -249 132zM105 570v120h600v-120h-600z" />
<glyph unicode="&#xbf;" d="M130 400q0 -425 480 -425q370 0 445 240l43 134l-214 70l-29 -89q-45 -155 -245 -155q-230 0 -230 225q0 200 145 232q305 88 305 378v40h-250q0 -160 -140 -182q-310 -88 -310 -468zM580 1250v250h250v-250h-250z" />
<glyph unicode="&#xc0;" horiz-adv-x="1300" d="M16 69l584 1456h100l584 -1456l-232 -94l-137 325h-530l-135 -325zM249 1774l510 -183l63 136l-468 273zM470 500h360l-180 480z" />
<glyph unicode="&#xc1;" horiz-adv-x="1300" d="M16 69l584 1456h100l584 -1456l-232 -94l-137 325h-530l-135 -325zM470 500h360l-180 480zM498 1727l468 273l105 -226l-510 -183z" />
<glyph unicode="&#xc2;" horiz-adv-x="1300" d="M16 69l584 1456h100l584 -1456l-232 -94l-137 325h-530l-135 -325zM325 1750l322 241l323 -241l-95 -132l-228 152l-227 -152zM470 500h360l-180 480z" />
<glyph unicode="&#xc3;" horiz-adv-x="1300" d="M16 69l584 1456h100l584 -1456l-232 -94l-137 325h-530l-135 -325zM251 1737q150 260 410 110l43 -25q130 -75 205 55l130 -75q-150 -260 -410 -110l-44 25q-130 75 -204 -55zM470 500h360l-180 480z" />
<glyph unicode="&#xc4;" horiz-adv-x="1300" d="M16 69l584 1456h100l584 -1456l-232 -94l-137 325h-530l-135 -325zM200 1650v250h250v-250h-250zM470 500h360l-180 480zM850 1650v250h250v-250h-250z" />
<glyph unicode="&#xc5;" horiz-adv-x="1300" d="M16 69l584 1456h100l584 -1456l-232 -94l-137 325h-530l-135 -325zM459 1674.5q-32 75.5 0 151t109 107t154 0t109 -107t0 -151t-109 -107t-154 0t-109 107zM470 500h360l-180 480zM554.5 1712.5q15.5 -37.5 53 -53.5t75 0t53 53.5t0 75t-53 53.5t-75 0t-53 -53.5t0 -75z " />
<glyph unicode="&#xc6;" horiz-adv-x="1855" d="M100 70l820 1430h830l-50 -200h-600v-450h450v-200h-450v-450h600l50 -200h-900v300h-330l-205 -355zM635 500h215v375z" />
<glyph unicode="&#xc7;" horiz-adv-x="1240" d="M100 750q0 775 550 775q365 0 440 -230l48 -114l-204 -95l-44 84q-45 150 -240 155q-300 0 -300 -575t300 -575q185 10 240 155l44 84l204 -95l-48 -114q-115 -230 -440 -230q-550 0 -550 775zM300 -280l55 50q150 -75 252.5 -72.5t132.5 52.5t-2.5 70t-127.5 -10l-25 85 q160 50 252.5 17.5t92.5 -102.5t-70 -122.5t-222.5 -60t-337.5 92.5z" />
<glyph unicode="&#xc8;" horiz-adv-x="1100" d="M100 0v1500h900l-50 -200h-600v-450h450v-200h-450v-450h600l50 -200h-900zM299 1774l510 -183l63 136l-468 273z" />
<glyph unicode="&#xc9;" horiz-adv-x="1100" d="M100 0v1500h900l-50 -200h-600v-450h450v-200h-450v-450h600l50 -200h-900zM298 1727l468 273l105 -226l-510 -183z" />
<glyph unicode="&#xca;" horiz-adv-x="1100" d="M100 0v1500h900l-50 -200h-600v-450h450v-200h-450v-450h600l50 -200h-900zM225 1750l322 241l323 -241l-95 -132l-228 152l-227 -152z" />
<glyph unicode="&#xcb;" horiz-adv-x="1100" d="M100 0v1500h900l-50 -200h-600v-450h450v-200h-450v-450h600l50 -200h-900zM100 1650v250h250v-250h-250zM750 1650v250h250v-250h-250z" />
<glyph unicode="&#xcc;" horiz-adv-x="450" d="M-201 1774l510 -183l63 136l-468 273zM100 0v1500h250v-1500h-250z" />
<glyph unicode="&#xcd;" horiz-adv-x="450" d="M98 1727l468 273l105 -226l-510 -183zM100 0v1500h250v-1500h-250z" />
<glyph unicode="&#xce;" horiz-adv-x="450" d="M-100 1750l322 241l323 -241l-95 -132l-228 152l-227 -152zM100 0v1500h250v-1500h-250z" />
<glyph unicode="&#xcf;" horiz-adv-x="450" d="M-100 1650v250h250v-250h-250zM100 0v1500h250v-1500h-250zM300 1650v250h250v-250h-250z" />
<glyph unicode="&#xd0;" horiz-adv-x="1350" d="M100 850h150v650h500q500 0 500 -750t-500 -750h-500v650h-100zM500 200h250q250 0 250 550t-250 550h-250v-450h200l-50 -200h-150v-450z" />
<glyph unicode="&#xd1;" d="M100 0v1550h100l650 -1000v950h250v-1550h-100l-650 1000v-950h-250zM226 1737q150 260 410 110l43 -25q130 -75 205 55l130 -75q-150 -260 -410 -110l-44 25q-130 75 -204 -55z" />
<glyph unicode="&#xd2;" horiz-adv-x="1300" d="M100 750q0 775 550 775t550 -775t-550 -775t-550 775zM199 1774l510 -183l63 136l-468 273zM350 750q0 -575 300 -575t300 575t-300 575t-300 -575z" />
<glyph unicode="&#xd3;" horiz-adv-x="1300" d="M100 750q0 775 550 775t550 -775t-550 -775t-550 775zM350 750q0 -575 300 -575t300 575t-300 575t-300 -575zM498 1727l468 273l105 -226l-510 -183z" />
<glyph unicode="&#xd4;" horiz-adv-x="1300" d="M100 750q0 775 550 775t550 -775t-550 -775t-550 775zM325 1750l322 241l323 -241l-95 -132l-228 152l-227 -152zM350 750q0 -575 300 -575t300 575t-300 575t-300 -575z" />
<glyph unicode="&#xd5;" horiz-adv-x="1300" d="M100 750q0 775 550 775t550 -775t-550 -775t-550 775zM251 1737q150 260 410 110l43 -25q130 -75 205 55l130 -75q-150 -260 -410 -110l-44 25q-130 75 -204 -55zM350 750q0 -575 300 -575t300 575t-300 575t-300 -575z" />
<glyph unicode="&#xd6;" horiz-adv-x="1300" d="M100 750q0 775 550 775t550 -775t-550 -775t-550 775zM200 1650v250h250v-250h-250zM350 750q0 -575 300 -575t300 575t-300 575t-300 -575zM850 1650v250h250v-250h-250z" />
<glyph unicode="&#xd7;" horiz-adv-x="910" d="M101 538l213 212l-213 212l142 142l212 -213l212 213l142 -142l-213 -212l213 -212l-142 -142l-212 213l-212 -213z" />
<glyph unicode="&#xd8;" horiz-adv-x="1300" d="M43 183l117 142q-60 170 -60 425q0 775 550 775q255 -5 390 -160l64 82l153 -129l-117 -138q60 -150 60 -430q0 -775 -550 -775q-265 5 -385 155l-68 -75zM350 750q0 -140 15 -185l515 615q-70 140 -230 145q-300 0 -300 -575zM425 320q66 -140 226 -145q300 0 300 575 q0 140 -15 185z" />
<glyph unicode="&#xd9;" d="M100 500v1000h250v-1000q0 -325 250 -325t250 325v1000h250v-1000q0 -525 -500 -525t-500 525zM299 1774l510 -183l63 136l-468 273z" />
<glyph unicode="&#xda;" d="M100 500v1000h250v-1000q0 -325 250 -325t250 325v1000h250v-1000q0 -525 -500 -525t-500 525zM298 1727l468 273l105 -226l-510 -183z" />
<glyph unicode="&#xdb;" d="M100 500v1000h250v-1000q0 -325 250 -325t250 325v1000h250v-1000q0 -525 -500 -525t-500 525zM275 1750l322 241l323 -241l-95 -132l-228 152l-227 -152z" />
<glyph unicode="&#xdc;" d="M100 500v1000h250v-1000q0 -325 250 -325t250 325v1000h250v-1000q0 -525 -500 -525t-500 525zM150 1650v250h250v-250h-250zM800 1650v250h250v-250h-250z" />
<glyph unicode="&#xdd;" horiz-adv-x="1210" d="M25 1400l216 125l364 -630l364 630l216 -125l-455 -790v-610h-250v610zM423 1727l468 273l105 -226l-510 -183z" />
<glyph unicode="&#xde;" horiz-adv-x="1150" d="M100 0v1500h250v-300h200q500 0 500 -450t-500 -450h-200v-300h-250zM350 500h200q250 0 250 250t-250 250h-200v-500z" />
<glyph unicode="&#xdf;" horiz-adv-x="1315" d="M50 1000h100v150q0 375 425 375t425 -375q-5 -170 -173 -288q-77 -37 -77 -137q0 -80 120 -105q345 -50 345 -320q0 -325 -395 -325q-200 5 -320 125l150 145q55 -60 170 -70q145 0 145 110t-180 132q-285 58 -285 333q15 180 138 252q122 78 112 148q0 175 -175 172.5 t-175 -172.5v-1150h-250v800h-50z" />
<glyph unicode="&#xe0;" horiz-adv-x="1030" d="M50 310q0 335 471 355q94 0 174 -20q-30 190 -165 180q-170 5 -280 -125l-140 175q150 150 420 150q400 0 400 -525v-500h-250v108q-35 -113 -280 -133q-350 0 -350 335zM249 1334l510 -183l63 136l-468 273zM280 330q0 -155 207.5 -157.5t204.5 277.5l-131 15 q-281 20 -281 -135z" />
<glyph unicode="&#xe1;" horiz-adv-x="1030" d="M50 310q0 335 471 355q94 0 174 -20q-30 190 -165 180q-170 5 -280 -125l-140 175q150 150 420 150q400 0 400 -525v-500h-250v108q-35 -113 -280 -133q-350 0 -350 335zM248 1287l468 273l105 -226l-510 -183zM280 330q0 -155 207.5 -157.5t204.5 277.5l-131 15 q-281 20 -281 -135z" />
<glyph unicode="&#xe2;" horiz-adv-x="1030" d="M50 310q0 335 471 355q94 0 174 -20q-30 190 -165 180q-170 5 -280 -125l-140 175q150 150 420 150q400 0 400 -525v-500h-250v108q-35 -113 -280 -133q-350 0 -350 335zM200 1280l322 241l323 -241l-95 -132l-228 152l-227 -152zM280 330q0 -155 207.5 -157.5 t204.5 277.5l-131 15q-281 20 -281 -135z" />
<glyph unicode="&#xe3;" horiz-adv-x="1030" d="M50 310q0 335 471 355q94 0 174 -20q-30 190 -165 180q-170 5 -280 -125l-140 175q150 150 420 150q400 0 400 -525v-500h-250v108q-35 -113 -280 -133q-350 0 -350 335zM126 1267q150 260 410 110l43 -25q130 -75 205 55l130 -75q-150 -260 -410 -110l-44 25 q-130 75 -204 -55zM280 330q0 -155 207.5 -157.5t204.5 277.5l-131 15q-281 20 -281 -135z" />
<glyph unicode="&#xe4;" horiz-adv-x="1030" d="M50 310q0 335 471 355q94 0 174 -20q-30 190 -165 180q-170 5 -280 -125l-140 175q150 150 420 150q400 0 400 -525v-500h-250v108q-35 -113 -280 -133q-350 0 -350 335zM50 1150v250h250v-250h-250zM280 330q0 -155 207.5 -157.5t204.5 277.5l-131 15q-281 20 -281 -135 zM700 1150v250h250v-250h-250z" />
<glyph unicode="&#xe5;" horiz-adv-x="1030" d="M50 310q0 335 471 355q94 0 174 -20q-30 190 -165 180q-170 5 -280 -125l-140 175q150 150 420 150q400 0 400 -525v-500h-250v108q-35 -113 -280 -133q-350 0 -350 335zM280 330q0 -155 207.5 -157.5t204.5 277.5l-131 15q-281 20 -281 -135zM334 1274.5q-32 75.5 0 151 t109 107t154 0t109 -107t0 -151t-109 -107t-154 0t-109 107zM429.5 1312.5q15.5 -37.5 53 -53.5t75 0t53 53.5t0 75t-53 53.5t-75 0t-53 -53.5t0 -75z" />
<glyph unicode="&#xe6;" horiz-adv-x="1730" d="M100 310q0 335 420 355l175 -20q-30 190 -165 180q-120 5 -230 -125l-140 175q150 150 370 150q195 0 292 -115q118 115 338 115q470 0 470 -525v-100h-685q60 -235 245 -225q170 -5 285 150l150 -150q-160 -200 -435 -200q-300 5 -395 175q-80 -175 -280 -175 q-415 0 -415 335zM330 330q0 -155 182.5 -157.5t179.5 277.5l-131 15q-231 20 -231 -135zM945 600h435q0 225 -197.5 225t-237.5 -225z" />
<glyph unicode="&#xe7;" horiz-adv-x="1040" d="M50 500q0 525 500 525q315 0 390 -230l24 -57l-202 -110l-22 42q-45 155 -190 155q-250 0 -250 -325t250 -325q135 10 190 155l22 42l202 -110l-24 -57q-115 -230 -390 -230q-500 0 -500 525zM150 -280l55 50q150 -75 252.5 -72.5t132.5 52.5t-2.5 70t-127.5 -10l-25 85 q160 50 252.5 17.5t92.5 -102.5t-70 -122.5t-222.5 -60t-337.5 92.5z" />
<glyph unicode="&#xe8;" horiz-adv-x="1140" d="M100 500q0 525 470 525t470 -525v-100h-685q60 -235 245 -225q170 -5 285 150l150 -150q-160 -200 -435 -200q-500 0 -500 525zM299 1334l510 -183l63 136l-468 273zM355 600h435q0 225 -197.5 225t-237.5 -225z" />
<glyph unicode="&#xe9;" horiz-adv-x="1140" d="M100 500q0 525 470 525t470 -525v-100h-685q60 -235 245 -225q170 -5 285 150l150 -150q-160 -200 -435 -200q-500 0 -500 525zM298 1287l468 273l105 -226l-510 -183zM355 600h435q0 225 -197.5 225t-237.5 -225z" />
<glyph unicode="&#xea;" horiz-adv-x="1140" d="M100 500q0 525 470 525t470 -525v-100h-685q60 -235 245 -225q170 -5 285 150l150 -150q-160 -200 -435 -200q-500 0 -500 525zM250 1280l322 241l323 -241l-95 -132l-228 152l-227 -152zM355 600h435q0 225 -197.5 225t-237.5 -225z" />
<glyph unicode="&#xeb;" horiz-adv-x="1140" d="M100 500q0 525 470 525t470 -525v-100h-685q60 -235 245 -225q170 -5 285 150l150 -150q-160 -200 -435 -200q-500 0 -500 525zM100 1150v250h250v-250h-250zM355 600h435q0 225 -197.5 225t-237.5 -225zM750 1150v250h250v-250h-250z" />
<glyph unicode="&#xec;" horiz-adv-x="450" d="M-100 1544l216 125l227 -492l-130 -75zM100 0v1000h250v-1000h-250z" />
<glyph unicode="&#xed;" horiz-adv-x="450" d="M100 0v1000h250v-1000h-250zM100 1177l227 492l216 -125l-313 -442z" />
<glyph unicode="&#xee;" horiz-adv-x="450" d="M-100 1280l322 241l323 -241l-95 -132l-228 152l-227 -152zM100 0v1000h250v-1000h-250z" />
<glyph unicode="&#xef;" horiz-adv-x="450" d="M-100 1150v250h250v-250h-250zM100 0v1000h250v-1000h-250zM300 1150v250h250v-250h-250z" />
<glyph unicode="&#xf0;" d="M100 500q0 525 500 525q215 -25 250 -140q-15 200 -210 293l-38 -94l-188 69l38 103l-162 34l-185 35l40 210l170 -30l217 -50l36 121l188 -69l-44 -116q61 -26 222 -163.5t163.5 -695t-497.5 -557.5t-500 525zM350 505q0 -320 250 -320t250 320t-250 320t-250 -320z" />
<glyph unicode="&#xf1;" horiz-adv-x="1100" d="M100 0v1000h250v-150q0 175 325 175t325 -425v-600h-250v600q0 225 -200 225t-200 -225v-600h-250zM151 1267q150 260 410 110l43 -25q130 -75 205 55l130 -75q-150 -260 -410 -110l-44 25q-130 75 -204 -55z" />
<glyph unicode="&#xf2;" d="M100 500q0 525 500 525t500 -525t-500 -525t-500 525zM299 1334l510 -183l63 136l-468 273zM350 500q0 -325 250 -325t250 325t-250 325t-250 -325z" />
<glyph unicode="&#xf3;" d="M100 500q0 525 500 525t500 -525t-500 -525t-500 525zM298 1287l468 273l105 -226l-510 -183zM350 500q0 -325 250 -325t250 325t-250 325t-250 -325z" />
<glyph unicode="&#xf4;" d="M100 500q0 525 500 525t500 -525t-500 -525t-500 525zM250 1280l322 241l323 -241l-95 -132l-228 152l-227 -152zM350 500q0 -325 250 -325t250 325t-250 325t-250 -325z" />
<glyph unicode="&#xf5;" d="M100 500q0 525 500 525t500 -525t-500 -525t-500 525zM201 1267q150 260 410 110l43 -25q130 -75 205 55l130 -75q-150 -260 -410 -110l-44 25q-130 75 -204 -55zM350 500q0 -325 250 -325t250 325t-250 325t-250 -325z" />
<glyph unicode="&#xf6;" d="M100 500q0 525 500 525t500 -525t-500 -525t-500 525zM150 1150v250h250v-250h-250zM350 500q0 -325 250 -325t250 325t-250 325t-250 -325zM800 1150v250h250v-250h-250z" />
<glyph unicode="&#xf7;" horiz-adv-x="1000" d="M100 650v200h800v-200h-800zM375 250v250h250v-250h-250zM375 1000v250h250v-250h-250z" />
<glyph unicode="&#xf8;" d="M70 145l80 80q-50 120 -50 280q0 520 500 520q185 0 285 -65l70 70l175 -175l-75 -75q45 -110 45 -280q0 -525 -500 -525q-200 5 -285 60l-70 -65zM350 500q0 -41 4 -70l368 368q-44 26 -122 27q-250 0 -250 -325zM478 202q44 -26 122 -27q250 0 250 325q0 41 -4 70z" />
<glyph unicode="&#xf9;" horiz-adv-x="1100" d="M100 400v600h250v-600q0 -225 200 -225t200 225v600h250v-1000h-250v150q0 -175 -325 -175t-325 425zM199 1334l510 -183l63 136l-468 273z" />
<glyph unicode="&#xfa;" horiz-adv-x="1100" d="M100 400v600h250v-600q0 -225 200 -225t200 225v600h250v-1000h-250v150q0 -175 -325 -175t-325 425zM298 1287l468 273l105 -226l-510 -183z" />
<glyph unicode="&#xfb;" horiz-adv-x="1100" d="M100 400v600h250v-600q0 -225 200 -225t200 225v600h250v-1000h-250v150q0 -175 -325 -175t-325 425zM225 1280l322 241l323 -241l-95 -132l-228 152l-227 -152z" />
<glyph unicode="&#xfc;" horiz-adv-x="1100" d="M100 400v600h250v-600q0 -225 200 -225t200 225v600h250v-1000h-250v150q0 -175 -325 -175t-325 425zM100 1150v250h250v-250h-250zM750 1150v250h250v-250h-250z" />
<glyph unicode="&#xfd;" horiz-adv-x="1025" d="M42 922l228 103l257 -536l251 536l225 -107l-621 -1328l-227 100l237 496zM223 1287l468 273l105 -226l-510 -183z" />
<glyph unicode="&#xfe;" horiz-adv-x="1100" d="M100 -400v1900h250v-650q0 175 325 175t325 -500q-12 -338 -127 -440.5t-258 -111t-265 51.5v-425h-250zM350 275q30 -100 215 -87.5t185 325t-200 312.5t-200 -225v-325z" />
<glyph unicode="&#xff;" horiz-adv-x="1025" d="M42 922l228 103l257 -536l251 536l225 -107l-621 -1328l-227 100l237 496zM75 1150v250h250v-250h-250zM725 1150v250h250v-250h-250z" />
<glyph unicode="&#x152;" horiz-adv-x="1950" d="M100 750q0 775 550 775q190 2 300 -85v60h900l-50 -200h-600v-450h450v-200h-450v-450h600l50 -200h-900v60q-110 -87 -300 -85q-550 0 -550 775zM350 750q0 -575 300 -575t300 575t-300 575t-300 -575z" />
<glyph unicode="&#x153;" horiz-adv-x="1890" d="M100 500q0 525 500 525q270 -5 375 -130q105 125 345 130q470 0 470 -525v-100h-685q60 -235 245 -225q170 -5 285 150l150 -150q-160 -200 -435 -200q-270 5 -375 130q-105 -125 -375 -130q-500 0 -500 525zM350 500q0 -325 250 -325t250 325t-250 325t-250 -325z M1105 600h435q0 225 -197.5 225t-237.5 -225z" />
<glyph unicode="&#x178;" horiz-adv-x="1210" d="M25 1400l216 125l364 -630l364 630l216 -125l-455 -790v-610h-250v610zM150 1650v250h250v-250h-250zM800 1650v250h250v-250h-250z" />
<glyph unicode="&#x2c6;" horiz-adv-x="1550" d="M100 1680l322 241l323 -241l-95 -132l-228 152l-227 -152z" />
<glyph unicode="&#x2dc;" horiz-adv-x="1550" d="M100 1667q150 260 410 110l43 -25q130 -75 205 55l130 -75q-150 -260 -410 -110l-44 25q-130 75 -204 -55z" />
<glyph unicode="&#x2000;" horiz-adv-x="1000" />
<glyph unicode="&#x2001;" horiz-adv-x="2000" />
<glyph unicode="&#x2002;" horiz-adv-x="1000" />
<glyph unicode="&#x2003;" horiz-adv-x="2000" />
<glyph unicode="&#x2004;" horiz-adv-x="666" />
<glyph unicode="&#x2005;" horiz-adv-x="500" />
<glyph unicode="&#x2006;" horiz-adv-x="333" />
<glyph unicode="&#x2007;" horiz-adv-x="333" />
<glyph unicode="&#x2008;" horiz-adv-x="250" />
<glyph unicode="&#x2009;" horiz-adv-x="400" />
<glyph unicode="&#x200a;" horiz-adv-x="111" />
<glyph unicode="&#x2010;" horiz-adv-x="1000" d="M100 650v200h800v-200h-800z" />
<glyph unicode="&#x2011;" horiz-adv-x="1000" d="M100 650v200h800v-200h-800z" />
<glyph unicode="&#x2012;" horiz-adv-x="1000" d="M100 650v200h800v-200h-800z" />
<glyph unicode="&#x2013;" d="M100 650v200h1000v-200h-1000z" />
<glyph unicode="&#x2014;" horiz-adv-x="1400" d="M100 650v200h1200v-200h-1200z" />
<glyph unicode="&#x201a;" horiz-adv-x="643" d="M100 42l216 125l227 -492l-130 -75z" />
<glyph unicode="&#x201c;" horiz-adv-x="1045" d="M100 1544l216 125l227 -492l-130 -75zM500 1544l216 125l227 -492l-130 -75z" />
<glyph unicode="&#x201d;" horiz-adv-x="1045" d="M100 1177l227 492l216 -125l-313 -442zM500 1177l227 492l216 -125l-313 -442z" />
<glyph unicode="&#x201e;" horiz-adv-x="1043" d="M100 42l216 125l227 -492l-130 -75zM500 42l216 125l227 -492l-130 -75z" />
<glyph unicode="&#x2022;" horiz-adv-x="590" d="M114 675q-31 75 0 150t106 106t150 0t106 -106t0 -150t-106 -106t-150 0t-106 106z" />
<glyph unicode="&#x2026;" horiz-adv-x="1350" d="M100 0v250h250v-250h-250zM600 0v250h250v-250h-250zM1100 0v250h250v-250h-250z" />
<glyph unicode="&#x202f;" horiz-adv-x="400" />
<glyph unicode="&#x2039;" horiz-adv-x="575" d="M100 750l241 323l132 -95l-152 -228l152 -227l-132 -95z" />
<glyph unicode="&#x203a;" horiz-adv-x="575" d="M100 522l152 228l-152 227l132 95l241 -322l-241 -323z" />
<glyph unicode="&#x205f;" horiz-adv-x="500" />
<glyph unicode="&#x2122;" horiz-adv-x="1530" d="M63 1125h525l-25 -100h-175v-650h-125v650h-175zM312 385l136 753h54l226 -480l230 480h54l130 -753l-124 -23l-78 446l-212 -446l-213 446l-77 -446z" />
<glyph unicode="&#x25fc;" horiz-adv-x="1025" d="M0 0v1025h1025v-1025h-1025z" />
</font>
</defs>
</svg>
